<svg id="图层_1" data-name="图层 1" xmlns="http://www.w3.org/2000/svg" viewBox="0 0 503.22374 447.55853"><defs><style>.cls-1,.cls-10,.cls-14,.cls-2,.cls-3,.cls-4,.cls-5,.cls-6,.cls-7,.cls-8,.cls-9{fill:none;}.cls-1{stroke:#ff7f0e;}.cls-1,.cls-10,.cls-2,.cls-3,.cls-4,.cls-5,.cls-6,.cls-7,.cls-8,.cls-9{stroke-width:0.92437px;}.cls-2{stroke:#8c564b;}.cls-3{stroke:#2ca02c;}.cls-4{stroke:#9467bd;}.cls-5{stroke:#7f7f7f;}.cls-14,.cls-6{stroke:#1f77b4;}.cls-7{stroke:#d62728;}.cls-8{stroke:#bcbd22;}.cls-9{stroke:#e377c2;}.cls-10{stroke:#17becf;}.cls-11{font-size:11.18275px;font-family:MicrosoftYaHeiLight, Microsoft YaHei;}.cls-12{fill:#fff;}.cls-13{font-size:9.78491px;fill:#555;font-family:NSimSun;}.cls-14{stroke-width:1.23249px;}</style></defs><path class="cls-1" d="M272.96873,370.90357c27.95687,0,27.95687-202.86207,55.91376-202.86207" transform="translate(-260.38813 -138.20149)"/><path class="cls-2" d="M272.96873,370.90357c27.95687,0,27.95687-120.73875,55.91376-120.73875" transform="translate(-260.38813 -138.20149)"/><path class="cls-3" d="M272.96873,370.90357c27.95687,0,27.95687-56.08849,55.91376-56.08849" transform="translate(-260.38813 -138.20149)"/><path class="cls-4" d="M272.96873,370.90357c27.95687,0,27.95687-25.68539,55.91376-25.68539" transform="translate(-260.38813 -138.20149)"/><path class="cls-5" d="M272.96873,370.90357c27.95687,0,27.95687,13.45422,55.91376,13.45422" transform="translate(-260.38813 -138.20149)"/><path class="cls-6" d="M272.96873,370.90357c27.95687,0,27.95687,51.89492,55.91376,51.89492" transform="translate(-260.38813 -138.20149)"/><path class="cls-7" d="M272.96873,370.90357c27.95687,0,27.95687,107.80866,55.91376,107.80866" transform="translate(-260.38813 -138.20149)"/><path class="cls-8" d="M272.96873,370.90357c27.95687,0,27.95687,154.98588,55.91376,154.98588" transform="translate(-260.38813 -138.20149)"/><path class="cls-6" d="M272.96873,370.90357c27.95687,0,27.95687,175.95354,55.91376,175.95354" transform="translate(-260.38813 -138.20149)"/><path class="cls-3" d="M272.96873,370.90357c27.95687,0,27.95687,205.65772,55.91376,205.65772" transform="translate(-260.38813 -138.20149)"/><path class="cls-3" d="M444.20458,168.0415c27.95687,0,27.95687-17.473,55.9137-17.473" transform="translate(-260.38813 -138.20149)"/><path class="cls-7" d="M444.20458,168.0415h55.9137" transform="translate(-260.38813 -138.20149)"/><path class="cls-4" d="M444.20458,168.0415c27.95687,0,27.95687,17.473,55.9137,17.473" transform="translate(-260.38813 -138.20149)"/><path class="cls-9" d="M385.49514,250.16482c27.95687,0,27.95687-43.68263,55.91374-43.68263" transform="translate(-260.38813 -138.20149)"/><path class="cls-5" d="M385.49514,250.16482c27.95687,0,27.95687-26.20959,55.91374-26.20959" transform="translate(-260.38813 -138.20149)"/><path class="cls-8" d="M385.49514,250.16482c27.95687,0,27.95687-8.73651,55.91374-8.73651" transform="translate(-260.38813 -138.20149)"/><path class="cls-10" d="M385.49514,250.16482c27.95687,0,27.95687,8.73652,55.91374,8.73652" transform="translate(-260.38813 -138.20149)"/><path class="cls-6" d="M385.49514,250.16482c27.95687,0,27.95687,26.20956,55.91374,26.20956" transform="translate(-260.38813 -138.20149)"/><path class="cls-1" d="M385.49514,250.16482c27.95687,0,27.95687,43.68264,55.91374,43.68264" transform="translate(-260.38813 -138.20149)"/><path class="cls-7" d="M384.79619,314.81508H440.71" transform="translate(-260.38813 -138.20149)"/><path class="cls-2" d="M396.67789,345.21818c27.95687,0,27.95687-9.43544,55.91373-9.43544" transform="translate(-260.38813 -138.20149)"/><path class="cls-9" d="M396.67789,345.21818c27.95687,0,27.95687,9.43547,55.91373,9.43547" transform="translate(-260.38813 -138.20149)"/><path class="cls-8" d="M385.49514,384.35779c27.95687,0,27.95687-8.73652,55.91374-8.73652" transform="translate(-260.38813 -138.20149)"/><path class="cls-10" d="M385.49514,384.35779c27.95687,0,27.95687,8.73656,55.91374,8.73656" transform="translate(-260.38813 -138.20149)"/><path class="cls-1" d="M385.49514,422.79849c27.95687,0,27.95687-8.73652,55.91374-8.73652" transform="translate(-260.38813 -138.20149)"/><path class="cls-3" d="M385.49514,422.79849c27.95687,0,27.95687,8.73652,55.91374,8.73652" transform="translate(-260.38813 -138.20149)"/><path class="cls-4" d="M385.49514,478.71223c27.95687,0,27.95687-26.20956,55.91374-26.20956" transform="translate(-260.38813 -138.20149)"/><path class="cls-2" d="M385.49514,478.71223c27.95687,0,27.95687-8.73652,55.91374-8.73652" transform="translate(-260.38813 -138.20149)"/><path class="cls-9" d="M385.49514,478.71223c27.95687,0,27.95687,8.73652,55.91374,8.73652" transform="translate(-260.38813 -138.20149)"/><path class="cls-5" d="M385.49514,478.71223c27.95687,0,27.95687,26.20956,55.91374,26.20956" transform="translate(-260.38813 -138.20149)"/><path class="cls-10" d="M385.49514,525.88945h55.91374" transform="translate(-260.38813 -138.20149)"/><path class="cls-1" d="M388.29081,546.85711h55.91377" transform="translate(-260.38813 -138.20149)"/><path class="cls-7" d="M385.49514,576.56129c27.95687,0,27.95687-8.73652,55.91374-8.73652" transform="translate(-260.38813 -138.20149)"/><path class="cls-4" d="M385.49514,576.56129c27.95687,0,27.95687,8.73652,55.91374,8.73652" transform="translate(-260.38813 -138.20149)"/><line class="cls-4" x1="180.32186" y1="447.09635" x2="395.5897" y2="447.09635"/><text class="cls-11" transform="translate(186.61182 444.30103)">提供优化建议和改进页面性能的参考方案</text><line class="cls-7" x1="180.32186" y1="429.62327" x2="434.72942" y2="429.62327"/><text class="cls-11" transform="translate(186.61182 426.8274)">报告得分范围0-100，分为慢、平均、快三个等级</text><line class="cls-1" x1="183.1175" y1="408.65565" x2="457.09484" y2="408.65565"/><text class="cls-11" transform="translate(189.40772 405.85963)">验证渐进式 W</text><text class="cls-11" transform="translate(259.00587 405.85963)">eb App（Pr</text><text class="cls-11" transform="translate(317.80176 405.85963)">ogr</text><text class="cls-11" transform="translate(335.08985 405.85963)">essive W</text><text class="cls-11" transform="translate(378.30176 405.85963)">eb App）性能</text><line class="cls-10" x1="180.32186" y1="387.68795" x2="406.77251" y2="387.68795"/><text class="cls-11" transform="translate(186.61182 384.89283)">确保网页内容对所有人友好，包括残障人士</text><line class="cls-5" x1="180.32186" y1="366.72029" x2="283.06338" y2="366.72029"/><text class="cls-11" transform="translate(186.61182 363.92506)">Chr</text><text class="cls-11" transform="translate(204.32569 363.92506)">ome 扩展程序</text><line class="cls-9" x1="180.32186" y1="349.24729" x2="264.89139" y2="349.24729"/><text class="cls-11" transform="translate(186.61182 346.45142)">Node Module</text><line class="cls-2" x1="180.32186" y1="331.77422" x2="320.10624" y2="331.77422"/><text class="cls-11" transform="translate(186.61182 328.97877)">Node CLI（命令行工具）</text><line class="cls-4" x1="180.32186" y1="314.30121" x2="361.34257" y2="314.30121"/><text class="cls-11" transform="translate(186.61182 311.50562)">Chr</text><text class="cls-11" transform="translate(204.32569 311.50562)">ome 开发者工具（DevT</text><text class="cls-11" transform="translate(321.51563 311.50562)">ools）</text><line class="cls-3" x1="180.32186" y1="293.33352" x2="440.32076" y2="293.33352"/><text class="cls-11" transform="translate(186.61182 290.53785)">在无插件、无缓存环境下运行以保护用户数据安全</text><line class="cls-1" x1="180.32186" y1="275.86048" x2="406.77251" y2="275.86048"/><text class="cls-11" transform="translate(186.61182 273.06519)">清理浏览器缓存以获得准确的性能分析分数</text><line class="cls-10" x1="180.32186" y1="254.89285" x2="503.22374" y2="254.89285"/><text class="cls-11" transform="translate(186.61182 252.09742)">使用 Chr</text><text class="cls-11" transform="translate(230.00049 252.09742)">ome 协议检测、调试、分析 Chr</text><text class="cls-11" transform="translate(388.96192 252.09742)">omium 内核的浏览器</text><line class="cls-8" x1="180.32186" y1="237.41978" x2="450.80462" y2="237.41978"/><text class="cls-11" transform="translate(186.61182 234.62379)">配置 passes 属性控制加载请求的 URL 和收集的信息</text><line class="cls-9" x1="191.50458" y1="216.45216" x2="415.15952" y2="216.45216"/><text class="cls-11" transform="translate(197.79542 212.25855)">运行命令 </text><path class="cls-12" d="M506.40861,353.25578V341.37411a1.39778,1.39778,0,0,1,1.39783-1.39783h80.376a1.39787,1.39787,0,0,1,1.39787,1.39783v11.88167a1.398,1.398,0,0,1-1.39787,1.39787h-80.376a1.39786,1.39786,0,0,1-1.39783-1.39787Z" transform="translate(-260.38813 -138.20149)"/><text class="cls-13" transform="translate(248.28077 212.60816)">lighthouse &lt;URL&gt;</text><text class="cls-11" transform="translate(329.00684 212.25855)"><tspan xml:space="preserve"> 进行性能测试</tspan></text><line class="cls-2" x1="191.50458" y1="197.58125" x2="361.3425" y2="197.58125"/><text class="cls-11" transform="translate(197.79542 194.7859)">通过 npm 全局安装 Lighthouse</text><line class="cls-7" x1="179.62288" y1="176.61359" x2="372.52525" y2="176.61359"/><text class="cls-11" transform="translate(185.9126 173.81812)">评估网页是否符合搜索引擎优化标准</text><line class="cls-1" x1="180.32186" y1="155.64596" x2="428.43906" y2="155.64596"/><text class="cls-11" transform="translate(186.61182 152.85035)">累积布局偏移（Cumulative Layout Shif</text><text class="cls-11" transform="translate(380.34962 152.85035)">t, CLS）</text><line class="cls-6" x1="180.32186" y1="138.17289" x2="394.19193" y2="138.17289"/><text class="cls-11" transform="translate(186.61182 135.37769)">阻塞总时间（T</text><text class="cls-11" transform="translate(257.98438 135.37769)">otal Blocking Time, TBT）</text><line class="cls-10" x1="180.32186" y1="120.69985" x2="338.97708" y2="120.69985"/><text class="cls-11" transform="translate(186.61182 117.90406)">速度指标（Speed Index, SI）</text><line class="cls-8" x1="180.32186" y1="103.22678" x2="388.60052" y2="103.22678"/><text class="cls-11" transform="translate(186.61182 100.4314)">可交互时间（Time T</text><text class="cls-11" transform="translate(285.97462 100.4314)">o Interactive, T</text><text class="cls-11" transform="translate(360.43165 100.4314)">TI）</text><line class="cls-5" x1="180.32186" y1="85.75374" x2="429.13801" y2="85.75374"/><text class="cls-11" transform="translate(186.61182 82.95875)">最大内容绘制（Lar</text><text class="cls-11" transform="translate(280.1377 82.95875)">gest Contentful P</text><text class="cls-11" transform="translate(366.6338 82.95875)">aint, L</text><text class="cls-11" transform="translate(396.06544 82.95875)">CP）</text><line class="cls-9" x1="180.32186" y1="68.2807" x2="414.46064" y2="68.2807"/><text class="cls-11" transform="translate(186.61182 65.48609)">首次内容绘制（Fir</text><text class="cls-11" transform="translate(277.09083 65.48609)">st Contentful P</text><text class="cls-11" transform="translate(350.72266 65.48609)">aint, FCP）</text><line class="cls-4" x1="239.03127" y1="47.31304" x2="409.56812" y2="47.31304"/><text class="cls-11" transform="translate(245.32081 44.51734)">提供详细的性能指标和优化建议</text><line class="cls-7" x1="239.03127" y1="29.84" x2="465.48192" y2="29.84"/><text class="cls-11" transform="translate(245.32081 27.04469)">用于评估网页性能、可访问性、最佳实践等</text><line class="cls-3" x1="239.03127" y1="12.36696" x2="420.05198" y2="12.36696"/><text class="cls-11" transform="translate(245.32081 9.57203)">由 Google 开发的开源自动化工具</text><line class="cls-3" x1="67.7954" y1="438.35979" x2="126.50484" y2="438.35979"/><path class="cls-12" d="M389.68868,576.56129a4.19333,4.19333,0,1,1-.31923-1.60482A4.15378,4.15378,0,0,1,389.68868,576.56129Z" transform="translate(-260.38813 -138.20149)"/><path class="cls-3" d="M389.68868,576.56129a4.19333,4.19333,0,1,1-.31923-1.60482A4.15378,4.15378,0,0,1,389.68868,576.56129Z" transform="translate(-260.38813 -138.20149)"/><text class="cls-11" transform="translate(74.08546 435.56373)">报告解读</text><line class="cls-6" x1="67.7954" y1="408.65565" x2="129.30055" y2="408.65565"/><path class="cls-12" d="M392.48435,546.85714a4.19352,4.19352,0,1,1-.31923-1.60485A4.15333,4.15333,0,0,1,392.48435,546.85714Z" transform="translate(-260.38813 -138.20149)"/><path class="cls-6" d="M392.48435,546.85714a4.19352,4.19352,0,1,1-.31923-1.60485A4.15333,4.15333,0,0,1,392.48435,546.85714Z" transform="translate(-260.38813 -138.20149)"/><text class="cls-11" transform="translate(74.08546 405.85963)">P</text><text class="cls-11" transform="translate(81.0044 405.85963)">W</text><text class="cls-11" transform="translate(91.14893 405.85963)">A支持</text><line class="cls-8" x1="67.7954" y1="387.68795" x2="126.50484" y2="387.68795"/><path class="cls-12" d="M389.68868,525.88945a4.19333,4.19333,0,1,1-.31923-1.60482A4.15364,4.15364,0,0,1,389.68868,525.88945Z" transform="translate(-260.38813 -138.20149)"/><path class="cls-8" d="M389.68868,525.88945a4.19333,4.19333,0,1,1-.31923-1.60482A4.15364,4.15364,0,0,1,389.68868,525.88945Z" transform="translate(-260.38813 -138.20149)"/><text class="cls-11" transform="translate(74.08546 384.89283)">可访问性</text><line class="cls-7" x1="67.7954" y1="340.51074" x2="126.50484" y2="340.51074"/><path class="cls-12" d="M389.68868,478.71223a4.19338,4.19338,0,1,1-.31923-1.60481A4.15364,4.15364,0,0,1,389.68868,478.71223Z" transform="translate(-260.38813 -138.20149)"/><path class="cls-7" d="M389.68868,478.71223a4.19338,4.19338,0,1,1-.31923-1.60481A4.15364,4.15364,0,0,1,389.68868,478.71223Z" transform="translate(-260.38813 -138.20149)"/><text class="cls-11" transform="translate(74.08546 337.7151)">使用方式</text><line class="cls-6" x1="67.7954" y1="284.59703" x2="126.50484" y2="284.59703"/><path class="cls-12" d="M389.68868,422.79853a4.19352,4.19352,0,1,1-.31923-1.60482A4.15389,4.15389,0,0,1,389.68868,422.79853Z" transform="translate(-260.38813 -138.20149)"/><path class="cls-6" d="M389.68868,422.79853a4.19352,4.19352,0,1,1-.31923-1.60482A4.15389,4.15389,0,0,1,389.68868,422.79853Z" transform="translate(-260.38813 -138.20149)"/><text class="cls-11" transform="translate(74.08546 281.80152)">注意事项</text><line class="cls-5" x1="67.7954" y1="246.1563" x2="126.50484" y2="246.1563"/><path class="cls-12" d="M389.68868,384.35779a4.19347,4.19347,0,1,1-.31923-1.60478A4.15375,4.15375,0,0,1,389.68868,384.35779Z" transform="translate(-260.38813 -138.20149)"/><path class="cls-5" d="M389.68868,384.35779a4.19347,4.19347,0,1,1-.31923-1.60478A4.15375,4.15375,0,0,1,389.68868,384.35779Z" transform="translate(-260.38813 -138.20149)"/><text class="cls-11" transform="translate(74.08546 243.36109)">高级用法</text><line class="cls-4" x1="67.7954" y1="207.01668" x2="137.68759" y2="207.01668"/><path class="cls-12" d="M400.87143,345.21818a4.19347,4.19347,0,1,1-.31923-1.60482A4.154,4.154,0,0,1,400.87143,345.21818Z" transform="translate(-260.38813 -138.20149)"/><path class="cls-4" d="M400.87143,345.21818a4.19347,4.19347,0,1,1-.31923-1.60482A4.154,4.154,0,0,1,400.87143,345.21818Z" transform="translate(-260.38813 -138.20149)"/><text class="cls-11" transform="translate(74.08546 204.22144)">安装与运行</text><line class="cls-3" x1="67.7954" y1="176.61359" x2="125.80593" y2="176.61359"/><path class="cls-12" d="M388.98973,314.81508a4.194,4.194,0,1,1-.31923-1.60478A4.1532,4.1532,0,0,1,388.98973,314.81508Z" transform="translate(-260.38813 -138.20149)"/><path class="cls-3" d="M388.98973,314.81508a4.194,4.194,0,1,1-.31923-1.60478A4.1532,4.1532,0,0,1,388.98973,314.81508Z" transform="translate(-260.38813 -138.20149)"/><text class="cls-11" transform="translate(74.08546 173.81812)">SEO优化</text><line class="cls-2" x1="67.7954" y1="111.96333" x2="126.50484" y2="111.96333"/><path class="cls-12" d="M389.68868,250.16482a4.19333,4.19333,0,1,1-.31923-1.60481A4.15382,4.15382,0,0,1,389.68868,250.16482Z" transform="translate(-260.38813 -138.20149)"/><path class="cls-2" d="M389.68868,250.16482a4.19333,4.19333,0,1,1-.31923-1.60481A4.15382,4.15382,0,0,1,389.68868,250.16482Z" transform="translate(-260.38813 -138.20149)"/><text class="cls-11" transform="translate(74.08546 109.16773)">性能指标</text><line class="cls-1" x1="67.7954" y1="29.84" x2="185.21425" y2="29.84"/><path class="cls-12" d="M448.39809,168.0415a4.19347,4.19347,0,1,1-.31923-1.60482A4.15349,4.15349,0,0,1,448.39809,168.0415Z" transform="translate(-260.38813 -138.20149)"/><path class="cls-1" d="M448.39809,168.0415a4.19347,4.19347,0,1,1-.31923-1.60482A4.15349,4.15349,0,0,1,448.39809,168.0415Z" transform="translate(-260.38813 -138.20149)"/><text class="cls-11" transform="translate(74.08546 27.04469)">Lighthouse 工具概述</text><line class="cls-14" y1="232.70208" x2="13.97845" y2="232.70208"/><path class="cls-12" d="M277.16227,370.90357a4.19361,4.19361,0,1,1-.31923-1.60481A4.15334,4.15334,0,0,1,277.16227,370.90357Z" transform="translate(-260.38813 -138.20149)"/><path class="cls-6" d="M277.16227,370.90357a4.19361,4.19361,0,1,1-.31923-1.60481A4.15334,4.15334,0,0,1,277.16227,370.90357Z" transform="translate(-260.38813 -138.20149)"/></svg>