<?xml version="1.0" encoding="utf-8"?>
<!-- Generator: Adobe Illustrator 25.4.1, SVG Export Plug-In . SVG Version: 6.00 Build 0)  -->
<svg version="1.1" id="图层_1" xmlns="http://www.w3.org/2000/svg" xmlns:xlink="http://www.w3.org/1999/xlink" x="0px" y="0px"
	 viewBox="0 0 592 296" style="enable-background:new 0 0 592 296;" xml:space="preserve">
<style type="text/css">
	.st0{fill:#FFFFFF;}
</style>
<rect class="st0" width="296" height="296"/>
<rect x="120" y="16" width="8.2" height="8.2"/>
<rect x="136" y="16" width="8.2" height="8.2"/>
<rect x="152" y="16" width="8.2" height="8.2"/>
<rect x="160" y="16" width="8.2" height="8.2"/>
<rect x="168" y="16" width="8.2" height="8.2"/>
<rect x="200" y="16" width="8.2" height="8.2"/>
<rect x="88" y="24" width="8.2" height="8.2"/>
<rect x="96" y="24" width="8.2" height="8.2"/>
<rect x="112" y="24" width="8.2" height="8.2"/>
<rect x="120" y="24" width="8.2" height="8.2"/>
<rect x="128" y="24" width="8.2" height="8.2"/>
<rect x="152" y="24" width="8.2" height="8.2"/>
<rect x="176" y="24" width="8.2" height="8.2"/>
<rect x="184" y="24" width="8.2" height="8.2"/>
<rect x="192" y="24" width="8.2" height="8.2"/>
<rect x="208" y="24" width="8.2" height="8.2"/>
<rect x="80" y="32" width="8.2" height="8.2"/>
<rect x="120" y="32" width="8.2" height="8.2"/>
<rect x="136" y="32" width="8.2" height="8.2"/>
<rect x="144" y="32" width="8.2" height="8.2"/>
<rect x="152" y="32" width="8.2" height="8.2"/>
<rect x="160" y="32" width="8.2" height="8.2"/>
<rect x="176" y="32" width="8.2" height="8.2"/>
<rect x="80" y="40" width="8.2" height="8.2"/>
<rect x="104" y="40" width="8.2" height="8.2"/>
<rect x="112" y="40" width="8.2" height="8.2"/>
<rect x="128" y="40" width="8.2" height="8.2"/>
<rect x="136" y="40" width="8.2" height="8.2"/>
<rect x="144" y="40" width="8.2" height="8.2"/>
<rect x="168" y="40" width="8.2" height="8.2"/>
<rect x="176" y="40" width="8.2" height="8.2"/>
<rect x="184" y="40" width="8.2" height="8.2"/>
<rect x="200" y="40" width="8.2" height="8.2"/>
<rect x="208" y="40" width="8.2" height="8.2"/>
<rect x="80" y="48" width="8.2" height="8.2"/>
<rect x="88" y="48" width="8.2" height="8.2"/>
<rect x="104" y="48" width="8.2" height="8.2"/>
<rect x="112" y="48" width="8.2" height="8.2"/>
<rect x="136" y="48" width="8.2" height="8.2"/>
<rect x="152" y="48" width="8.2" height="8.2"/>
<rect x="160" y="48" width="8.2" height="8.2"/>
<rect x="208" y="48" width="8.2" height="8.2"/>
<rect x="80" y="56" width="8.2" height="8.2"/>
<rect x="96" y="56" width="8.2" height="8.2"/>
<rect x="104" y="56" width="8.2" height="8.2"/>
<rect x="112" y="56" width="8.2" height="8.2"/>
<rect x="136" y="56" width="8.2" height="8.2"/>
<rect x="144" y="56" width="8.2" height="8.2"/>
<rect x="152" y="56" width="8.2" height="8.2"/>
<rect x="176" y="56" width="8.2" height="8.2"/>
<rect x="184" y="56" width="8.2" height="8.2"/>
<rect x="208" y="56" width="8.2" height="8.2"/>
<rect x="80" y="64" width="8.2" height="8.2"/>
<rect x="96" y="64" width="8.2" height="8.2"/>
<rect x="112" y="64" width="8.2" height="8.2"/>
<rect x="128" y="64" width="8.2" height="8.2"/>
<rect x="144" y="64" width="8.2" height="8.2"/>
<rect x="160" y="64" width="8.2" height="8.2"/>
<rect x="176" y="64" width="8.2" height="8.2"/>
<rect x="192" y="64" width="8.2" height="8.2"/>
<rect x="208" y="64" width="8.2" height="8.2"/>
<rect x="80" y="72" width="8.2" height="8.2"/>
<rect x="88" y="72" width="8.2" height="8.2"/>
<rect x="96" y="72" width="8.2" height="8.2"/>
<rect x="112" y="72" width="8.2" height="8.2"/>
<rect x="120" y="72" width="8.2" height="8.2"/>
<rect x="128" y="72" width="8.2" height="8.2"/>
<rect x="136" y="72" width="8.2" height="8.2"/>
<rect x="184" y="72" width="8.2" height="8.2"/>
<rect x="192" y="72" width="8.2" height="8.2"/>
<rect x="200" y="72" width="8.2" height="8.2"/>
<rect x="16" y="80" width="8.2" height="8.2"/>
<rect x="32" y="80" width="8.2" height="8.2"/>
<rect x="40" y="80" width="8.2" height="8.2"/>
<rect x="48" y="80" width="8.2" height="8.2"/>
<rect x="56" y="80" width="8.2" height="8.2"/>
<rect x="64" y="80" width="8.2" height="8.2"/>
<rect x="96" y="80" width="8.2" height="8.2"/>
<rect x="112" y="80" width="8.2" height="8.2"/>
<rect x="120" y="80" width="8.2" height="8.2"/>
<rect x="128" y="80" width="8.2" height="8.2"/>
<rect x="136" y="80" width="8.2" height="8.2"/>
<rect x="144" y="80" width="8.2" height="8.2"/>
<rect x="152" y="80" width="8.2" height="8.2"/>
<rect x="192" y="80" width="8.2" height="8.2"/>
<rect x="208" y="80" width="8.2" height="8.2"/>
<rect x="224" y="80" width="8.2" height="8.2"/>
<rect x="232" y="80" width="8.2" height="8.2"/>
<rect x="240" y="80" width="8.2" height="8.2"/>
<rect x="248" y="80" width="8.2" height="8.2"/>
<rect x="256" y="80" width="8.2" height="8.2"/>
<rect x="24" y="88" width="8.2" height="8.2"/>
<rect x="32" y="88" width="8.2" height="8.2"/>
<rect x="56" y="88" width="8.2" height="8.2"/>
<rect x="72" y="88" width="8.2" height="8.2"/>
<rect x="80" y="88" width="8.2" height="8.2"/>
<rect x="88" y="88" width="8.2" height="8.2"/>
<rect x="136" y="88" width="8.2" height="8.2"/>
<rect x="160" y="88" width="8.2" height="8.2"/>
<rect x="168" y="88" width="8.2" height="8.2"/>
<rect x="176" y="88" width="8.2" height="8.2"/>
<rect x="184" y="88" width="8.2" height="8.2"/>
<rect x="192" y="88" width="8.2" height="8.2"/>
<rect x="200" y="88" width="8.2" height="8.2"/>
<rect x="224" y="88" width="8.2" height="8.2"/>
<rect x="232" y="88" width="8.2" height="8.2"/>
<rect x="248" y="88" width="8.2" height="8.2"/>
<rect x="256" y="88" width="8.2" height="8.2"/>
<rect x="272" y="88" width="8.2" height="8.2"/>
<rect x="16" y="96" width="8.2" height="8.2"/>
<rect x="24" y="96" width="8.2" height="8.2"/>
<rect x="40" y="96" width="8.2" height="8.2"/>
<rect x="64" y="96" width="8.2" height="8.2"/>
<rect x="104" y="96" width="8.2" height="8.2"/>
<rect x="112" y="96" width="8.2" height="8.2"/>
<rect x="136" y="96" width="8.2" height="8.2"/>
<rect x="144" y="96" width="8.2" height="8.2"/>
<rect x="160" y="96" width="8.2" height="8.2"/>
<rect x="176" y="96" width="8.2" height="8.2"/>
<rect x="184" y="96" width="8.2" height="8.2"/>
<rect x="216" y="96" width="8.2" height="8.2"/>
<rect x="224" y="96" width="8.2" height="8.2"/>
<rect x="240" y="96" width="8.2" height="8.2"/>
<rect x="256" y="96" width="8.2" height="8.2"/>
<rect x="264" y="96" width="8.2" height="8.2"/>
<rect x="272" y="96" width="8.2" height="8.2"/>
<rect x="16" y="104" width="8.2" height="8.2"/>
<rect x="24" y="104" width="8.2" height="8.2"/>
<rect x="32" y="104" width="8.2" height="8.2"/>
<rect x="40" y="104" width="8.2" height="8.2"/>
<rect x="56" y="104" width="8.2" height="8.2"/>
<rect x="72" y="104" width="8.2" height="8.2"/>
<rect x="88" y="104" width="8.2" height="8.2"/>
<rect x="96" y="104" width="8.2" height="8.2"/>
<rect x="112" y="104" width="8.2" height="8.2"/>
<rect x="128" y="104" width="8.2" height="8.2"/>
<rect x="168" y="104" width="8.2" height="8.2"/>
<rect x="176" y="104" width="8.2" height="8.2"/>
<rect x="184" y="104" width="8.2" height="8.2"/>
<rect x="208" y="104" width="8.2" height="8.2"/>
<rect x="224" y="104" width="8.2" height="8.2"/>
<rect x="240" y="104" width="8.2" height="8.2"/>
<rect x="248" y="104" width="8.2" height="8.2"/>
<rect x="256" y="104" width="8.2" height="8.2"/>
<rect x="16" y="112" width="8.2" height="8.2"/>
<rect x="40" y="112" width="8.2" height="8.2"/>
<rect x="48" y="112" width="8.2" height="8.2"/>
<rect x="64" y="112" width="8.2" height="8.2"/>
<rect x="72" y="112" width="8.2" height="8.2"/>
<rect x="88" y="112" width="8.2" height="8.2"/>
<rect x="184" y="112" width="8.2" height="8.2"/>
<rect x="208" y="112" width="8.2" height="8.2"/>
<rect x="216" y="112" width="8.2" height="8.2"/>
<rect x="224" y="112" width="8.2" height="8.2"/>
<rect x="232" y="112" width="8.2" height="8.2"/>
<rect x="248" y="112" width="8.2" height="8.2"/>
<rect x="264" y="112" width="8.2" height="8.2"/>
<rect x="272" y="112" width="8.2" height="8.2"/>
<rect x="24" y="120" width="8.2" height="8.2"/>
<rect x="40" y="120" width="8.2" height="8.2"/>
<rect x="48" y="120" width="8.2" height="8.2"/>
<rect x="80" y="120" width="8.2" height="8.2"/>
<rect x="88" y="120" width="8.2" height="8.2"/>
<rect x="96" y="120" width="8.2" height="8.2"/>
<rect x="184" y="120" width="8.2" height="8.2"/>
<rect x="208" y="120" width="8.2" height="8.2"/>
<rect x="232" y="120" width="8.2" height="8.2"/>
<rect x="248" y="120" width="8.2" height="8.2"/>
<rect x="264" y="120" width="8.2" height="8.2"/>
<rect x="272" y="120" width="8.2" height="8.2"/>
<rect x="40" y="128" width="8.2" height="8.2"/>
<rect x="64" y="128" width="8.2" height="8.2"/>
<rect x="80" y="128" width="8.2" height="8.2"/>
<rect x="104" y="128" width="8.2" height="8.2"/>
<rect x="184" y="128" width="8.2" height="8.2"/>
<rect x="208" y="128" width="8.2" height="8.2"/>
<rect x="216" y="128" width="8.2" height="8.2"/>
<rect x="224" y="128" width="8.2" height="8.2"/>
<rect x="240" y="128" width="8.2" height="8.2"/>
<rect x="248" y="128" width="8.2" height="8.2"/>
<rect x="256" y="128" width="8.2" height="8.2"/>
<rect x="264" y="128" width="8.2" height="8.2"/>
<rect x="24" y="136" width="8.2" height="8.2"/>
<rect x="72" y="136" width="8.2" height="8.2"/>
<rect x="88" y="136" width="8.2" height="8.2"/>
<rect x="96" y="136" width="8.2" height="8.2"/>
<rect x="104" y="136" width="8.2" height="8.2"/>
<rect x="184" y="136" width="8.2" height="8.2"/>
<rect x="200" y="136" width="8.2" height="8.2"/>
<rect x="216" y="136" width="8.2" height="8.2"/>
<rect x="224" y="136" width="8.2" height="8.2"/>
<rect x="240" y="136" width="8.2" height="8.2"/>
<rect x="256" y="136" width="8.2" height="8.2"/>
<rect x="32" y="144" width="8.2" height="8.2"/>
<rect x="40" y="144" width="8.2" height="8.2"/>
<rect x="64" y="144" width="8.2" height="8.2"/>
<rect x="80" y="144" width="8.2" height="8.2"/>
<rect x="88" y="144" width="8.2" height="8.2"/>
<rect x="96" y="144" width="8.2" height="8.2"/>
<rect x="192" y="144" width="8.2" height="8.2"/>
<rect x="200" y="144" width="8.2" height="8.2"/>
<rect x="208" y="144" width="8.2" height="8.2"/>
<rect x="216" y="144" width="8.2" height="8.2"/>
<rect x="232" y="144" width="8.2" height="8.2"/>
<rect x="240" y="144" width="8.2" height="8.2"/>
<rect x="256" y="144" width="8.2" height="8.2"/>
<rect x="272" y="144" width="8.2" height="8.2"/>
<rect x="24" y="152" width="8.2" height="8.2"/>
<rect x="48" y="152" width="8.2" height="8.2"/>
<rect x="56" y="152" width="8.2" height="8.2"/>
<rect x="200" y="152" width="8.2" height="8.2"/>
<rect x="216" y="152" width="8.2" height="8.2"/>
<rect x="224" y="152" width="8.2" height="8.2"/>
<rect x="232" y="152" width="8.2" height="8.2"/>
<rect x="248" y="152" width="8.2" height="8.2"/>
<rect x="256" y="152" width="8.2" height="8.2"/>
<rect x="272" y="152" width="8.2" height="8.2"/>
<rect x="16" y="160" width="8.2" height="8.2"/>
<rect x="24" y="160" width="8.2" height="8.2"/>
<rect x="56" y="160" width="8.2" height="8.2"/>
<rect x="64" y="160" width="8.2" height="8.2"/>
<rect x="72" y="160" width="8.2" height="8.2"/>
<rect x="80" y="160" width="8.2" height="8.2"/>
<rect x="192" y="160" width="8.2" height="8.2"/>
<rect x="208" y="160" width="8.2" height="8.2"/>
<rect x="216" y="160" width="8.2" height="8.2"/>
<rect x="224" y="160" width="8.2" height="8.2"/>
<rect x="232" y="160" width="8.2" height="8.2"/>
<rect x="240" y="160" width="8.2" height="8.2"/>
<rect x="256" y="160" width="8.2" height="8.2"/>
<rect x="264" y="160" width="8.2" height="8.2"/>
<rect x="272" y="160" width="8.2" height="8.2"/>
<rect x="16" y="168" width="8.2" height="8.2"/>
<rect x="40" y="168" width="8.2" height="8.2"/>
<rect x="48" y="168" width="8.2" height="8.2"/>
<rect x="56" y="168" width="8.2" height="8.2"/>
<rect x="88" y="168" width="8.2" height="8.2"/>
<rect x="96" y="168" width="8.2" height="8.2"/>
<rect x="200" y="168" width="8.2" height="8.2"/>
<rect x="216" y="168" width="8.2" height="8.2"/>
<rect x="232" y="168" width="8.2" height="8.2"/>
<rect x="240" y="168" width="8.2" height="8.2"/>
<rect x="248" y="168" width="8.2" height="8.2"/>
<rect x="256" y="168" width="8.2" height="8.2"/>
<rect x="16" y="176" width="8.2" height="8.2"/>
<rect x="48" y="176" width="8.2" height="8.2"/>
<rect x="56" y="176" width="8.2" height="8.2"/>
<rect x="64" y="176" width="8.2" height="8.2"/>
<rect x="72" y="176" width="8.2" height="8.2"/>
<rect x="80" y="176" width="8.2" height="8.2"/>
<rect x="88" y="176" width="8.2" height="8.2"/>
<rect x="104" y="176" width="8.2" height="8.2"/>
<rect x="184" y="176" width="8.2" height="8.2"/>
<rect x="192" y="176" width="8.2" height="8.2"/>
<rect x="200" y="176" width="8.2" height="8.2"/>
<rect x="208" y="176" width="8.2" height="8.2"/>
<rect x="216" y="176" width="8.2" height="8.2"/>
<rect x="224" y="176" width="8.2" height="8.2"/>
<rect x="232" y="176" width="8.2" height="8.2"/>
<rect x="240" y="176" width="8.2" height="8.2"/>
<rect x="248" y="176" width="8.2" height="8.2"/>
<rect x="264" y="176" width="8.2" height="8.2"/>
<rect x="272" y="176" width="8.2" height="8.2"/>
<rect x="16" y="184" width="8.2" height="8.2"/>
<rect x="24" y="184" width="8.2" height="8.2"/>
<rect x="48" y="184" width="8.2" height="8.2"/>
<rect x="72" y="184" width="8.2" height="8.2"/>
<rect x="88" y="184" width="8.2" height="8.2"/>
<rect x="96" y="184" width="8.2" height="8.2"/>
<rect x="112" y="184" width="8.2" height="8.2"/>
<rect x="120" y="184" width="8.2" height="8.2"/>
<rect x="128" y="184" width="8.2" height="8.2"/>
<rect x="136" y="184" width="8.2" height="8.2"/>
<rect x="152" y="184" width="8.2" height="8.2"/>
<rect x="160" y="184" width="8.2" height="8.2"/>
<rect x="184" y="184" width="8.2" height="8.2"/>
<rect x="232" y="184" width="8.2" height="8.2"/>
<rect x="248" y="184" width="8.2" height="8.2"/>
<rect x="272" y="184" width="8.2" height="8.2"/>
<rect x="16" y="192" width="8.2" height="8.2"/>
<rect x="40" y="192" width="8.2" height="8.2"/>
<rect x="48" y="192" width="8.2" height="8.2"/>
<rect x="64" y="192" width="8.2" height="8.2"/>
<rect x="88" y="192" width="8.2" height="8.2"/>
<rect x="120" y="192" width="8.2" height="8.2"/>
<rect x="136" y="192" width="8.2" height="8.2"/>
<rect x="144" y="192" width="8.2" height="8.2"/>
<rect x="152" y="192" width="8.2" height="8.2"/>
<rect x="160" y="192" width="8.2" height="8.2"/>
<rect x="176" y="192" width="8.2" height="8.2"/>
<rect x="184" y="192" width="8.2" height="8.2"/>
<rect x="208" y="192" width="8.2" height="8.2"/>
<rect x="232" y="192" width="8.2" height="8.2"/>
<rect x="240" y="192" width="8.2" height="8.2"/>
<rect x="248" y="192" width="8.2" height="8.2"/>
<rect x="264" y="192" width="8.2" height="8.2"/>
<rect x="16" y="200" width="8.2" height="8.2"/>
<rect x="32" y="200" width="8.2" height="8.2"/>
<rect x="48" y="200" width="8.2" height="8.2"/>
<rect x="80" y="200" width="8.2" height="8.2"/>
<rect x="96" y="200" width="8.2" height="8.2"/>
<rect x="104" y="200" width="8.2" height="8.2"/>
<rect x="112" y="200" width="8.2" height="8.2"/>
<rect x="120" y="200" width="8.2" height="8.2"/>
<rect x="128" y="200" width="8.2" height="8.2"/>
<rect x="136" y="200" width="8.2" height="8.2"/>
<rect x="184" y="200" width="8.2" height="8.2"/>
<rect x="192" y="200" width="8.2" height="8.2"/>
<rect x="216" y="200" width="8.2" height="8.2"/>
<rect x="240" y="200" width="8.2" height="8.2"/>
<rect x="256" y="200" width="8.2" height="8.2"/>
<rect x="264" y="200" width="8.2" height="8.2"/>
<rect x="16" y="208" width="8.2" height="8.2"/>
<rect x="40" y="208" width="8.2" height="8.2"/>
<rect x="48" y="208" width="8.2" height="8.2"/>
<rect x="56" y="208" width="8.2" height="8.2"/>
<rect x="64" y="208" width="8.2" height="8.2"/>
<rect x="80" y="208" width="8.2" height="8.2"/>
<rect x="88" y="208" width="8.2" height="8.2"/>
<rect x="136" y="208" width="8.2" height="8.2"/>
<rect x="144" y="208" width="8.2" height="8.2"/>
<rect x="152" y="208" width="8.2" height="8.2"/>
<rect x="192" y="208" width="8.2" height="8.2"/>
<rect x="200" y="208" width="8.2" height="8.2"/>
<rect x="208" y="208" width="8.2" height="8.2"/>
<rect x="216" y="208" width="8.2" height="8.2"/>
<rect x="224" y="208" width="8.2" height="8.2"/>
<rect x="232" y="208" width="8.2" height="8.2"/>
<rect x="240" y="208" width="8.2" height="8.2"/>
<rect x="272" y="208" width="8.2" height="8.2"/>
<rect x="80" y="216" width="8.2" height="8.2"/>
<rect x="128" y="216" width="8.2" height="8.2"/>
<rect x="136" y="216" width="8.2" height="8.2"/>
<rect x="168" y="216" width="8.2" height="8.2"/>
<rect x="176" y="216" width="8.2" height="8.2"/>
<rect x="184" y="216" width="8.2" height="8.2"/>
<rect x="192" y="216" width="8.2" height="8.2"/>
<rect x="208" y="216" width="8.2" height="8.2"/>
<rect x="240" y="216" width="8.2" height="8.2"/>
<rect x="256" y="216" width="8.2" height="8.2"/>
<rect x="88" y="224" width="8.2" height="8.2"/>
<rect x="104" y="224" width="8.2" height="8.2"/>
<rect x="112" y="224" width="8.2" height="8.2"/>
<rect x="136" y="224" width="8.2" height="8.2"/>
<rect x="160" y="224" width="8.2" height="8.2"/>
<rect x="184" y="224" width="8.2" height="8.2"/>
<rect x="200" y="224" width="8.2" height="8.2"/>
<rect x="208" y="224" width="8.2" height="8.2"/>
<rect x="224" y="224" width="8.2" height="8.2"/>
<rect x="240" y="224" width="8.2" height="8.2"/>
<rect x="256" y="224" width="8.2" height="8.2"/>
<rect x="272" y="224" width="8.2" height="8.2"/>
<rect x="80" y="232" width="8.2" height="8.2"/>
<rect x="88" y="232" width="8.2" height="8.2"/>
<rect x="104" y="232" width="8.2" height="8.2"/>
<rect x="136" y="232" width="8.2" height="8.2"/>
<rect x="168" y="232" width="8.2" height="8.2"/>
<rect x="176" y="232" width="8.2" height="8.2"/>
<rect x="184" y="232" width="8.2" height="8.2"/>
<rect x="192" y="232" width="8.2" height="8.2"/>
<rect x="208" y="232" width="8.2" height="8.2"/>
<rect x="240" y="232" width="8.2" height="8.2"/>
<rect x="248" y="232" width="8.2" height="8.2"/>
<rect x="256" y="232" width="8.2" height="8.2"/>
<rect x="264" y="232" width="8.2" height="8.2"/>
<rect x="80" y="240" width="8.2" height="8.2"/>
<rect x="88" y="240" width="8.2" height="8.2"/>
<rect x="96" y="240" width="8.2" height="8.2"/>
<rect x="104" y="240" width="8.2" height="8.2"/>
<rect x="128" y="240" width="8.2" height="8.2"/>
<rect x="136" y="240" width="8.2" height="8.2"/>
<rect x="160" y="240" width="8.2" height="8.2"/>
<rect x="168" y="240" width="8.2" height="8.2"/>
<rect x="184" y="240" width="8.2" height="8.2"/>
<rect x="208" y="240" width="8.2" height="8.2"/>
<rect x="216" y="240" width="8.2" height="8.2"/>
<rect x="224" y="240" width="8.2" height="8.2"/>
<rect x="232" y="240" width="8.2" height="8.2"/>
<rect x="240" y="240" width="8.2" height="8.2"/>
<rect x="248" y="240" width="8.2" height="8.2"/>
<rect x="264" y="240" width="8.2" height="8.2"/>
<rect x="272" y="240" width="8.2" height="8.2"/>
<rect x="80" y="248" width="8.2" height="8.2"/>
<rect x="96" y="248" width="8.2" height="8.2"/>
<rect x="112" y="248" width="8.2" height="8.2"/>
<rect x="120" y="248" width="8.2" height="8.2"/>
<rect x="136" y="248" width="8.2" height="8.2"/>
<rect x="144" y="248" width="8.2" height="8.2"/>
<rect x="152" y="248" width="8.2" height="8.2"/>
<rect x="176" y="248" width="8.2" height="8.2"/>
<rect x="192" y="248" width="8.2" height="8.2"/>
<rect x="216" y="248" width="8.2" height="8.2"/>
<rect x="240" y="248" width="8.2" height="8.2"/>
<rect x="248" y="248" width="8.2" height="8.2"/>
<rect x="264" y="248" width="8.2" height="8.2"/>
<rect x="80" y="256" width="8.2" height="8.2"/>
<rect x="88" y="256" width="8.2" height="8.2"/>
<rect x="120" y="256" width="8.2" height="8.2"/>
<rect x="160" y="256" width="8.2" height="8.2"/>
<rect x="168" y="256" width="8.2" height="8.2"/>
<rect x="184" y="256" width="8.2" height="8.2"/>
<rect x="208" y="256" width="8.2" height="8.2"/>
<rect x="216" y="256" width="8.2" height="8.2"/>
<rect x="224" y="256" width="8.2" height="8.2"/>
<rect x="232" y="256" width="8.2" height="8.2"/>
<rect x="248" y="256" width="8.2" height="8.2"/>
<rect x="256" y="256" width="8.2" height="8.2"/>
<rect x="96" y="264" width="8.2" height="8.2"/>
<rect x="104" y="264" width="8.2" height="8.2"/>
<rect x="120" y="264" width="8.2" height="8.2"/>
<rect x="144" y="264" width="8.2" height="8.2"/>
<rect x="160" y="264" width="8.2" height="8.2"/>
<rect x="168" y="264" width="8.2" height="8.2"/>
<rect x="176" y="264" width="8.2" height="8.2"/>
<rect x="184" y="264" width="8.2" height="8.2"/>
<rect x="192" y="264" width="8.2" height="8.2"/>
<rect x="216" y="264" width="8.2" height="8.2"/>
<rect x="224" y="264" width="8.2" height="8.2"/>
<rect x="240" y="264" width="8.2" height="8.2"/>
<rect x="80" y="272" width="8.2" height="8.2"/>
<rect x="88" y="272" width="8.2" height="8.2"/>
<rect x="96" y="272" width="8.2" height="8.2"/>
<rect x="112" y="272" width="8.2" height="8.2"/>
<rect x="120" y="272" width="8.2" height="8.2"/>
<rect x="144" y="272" width="8.2" height="8.2"/>
<rect x="160" y="272" width="8.2" height="8.2"/>
<rect x="168" y="272" width="8.2" height="8.2"/>
<rect x="216" y="272" width="8.2" height="8.2"/>
<rect x="232" y="272" width="8.2" height="8.2"/>
<rect x="264" y="272" width="8.2" height="8.2"/>
<path d="M16,16v56h56V16H16z M64,64H24V24h40V64z"/>
<path d="M224,16v56h56V16H224z M272,64h-40V24h40V64z"/>
<path d="M16,224v56h56v-56H16z M64,272H24v-40h40V272z"/>
<rect x="32" y="32" width="24" height="24"/>
<rect x="240" y="32" width="24" height="24"/>
<rect x="32" y="240" width="24" height="24"/>
<g>
	
		<image style="overflow:visible;enable-background:new    ;" width="256" height="256" xlink:href="75254BAA.jpg"  transform="matrix(0.2812 0 0 0.2812 112 112)">
	</image>
</g>
<rect x="296" class="st0" width="296" height="296"/>
<rect x="384" y="16" width="8.2" height="8.2"/>
<rect x="392" y="16" width="8.2" height="8.2"/>
<rect x="440" y="16" width="8.2" height="8.2"/>
<rect x="464" y="16" width="8.2" height="8.2"/>
<rect x="480" y="16" width="8.2" height="8.2"/>
<rect x="384" y="24" width="8.2" height="8.2"/>
<rect x="400" y="24" width="8.2" height="8.2"/>
<rect x="432" y="24" width="8.2" height="8.2"/>
<rect x="456" y="24" width="8.2" height="8.2"/>
<rect x="472" y="24" width="8.2" height="8.2"/>
<rect x="480" y="24" width="8.2" height="8.2"/>
<rect x="488" y="24" width="8.2" height="8.2"/>
<rect x="376" y="32" width="8.2" height="8.2"/>
<rect x="384" y="32" width="8.2" height="8.2"/>
<rect x="408" y="32" width="8.2" height="8.2"/>
<rect x="424" y="32" width="8.2" height="8.2"/>
<rect x="432" y="32" width="8.2" height="8.2"/>
<rect x="440" y="32" width="8.2" height="8.2"/>
<rect x="480" y="32" width="8.2" height="8.2"/>
<rect x="488" y="32" width="8.2" height="8.2"/>
<rect x="496" y="32" width="8.2" height="8.2"/>
<rect x="504" y="32" width="8.2" height="8.2"/>
<rect x="376" y="40" width="8.2" height="8.2"/>
<rect x="392" y="40" width="8.2" height="8.2"/>
<rect x="400" y="40" width="8.2" height="8.2"/>
<rect x="408" y="40" width="8.2" height="8.2"/>
<rect x="432" y="40" width="8.2" height="8.2"/>
<rect x="456" y="40" width="8.2" height="8.2"/>
<rect x="464" y="40" width="8.2" height="8.2"/>
<rect x="480" y="40" width="8.2" height="8.2"/>
<rect x="488" y="40" width="8.2" height="8.2"/>
<rect x="376" y="48" width="8.2" height="8.2"/>
<rect x="384" y="48" width="8.2" height="8.2"/>
<rect x="408" y="48" width="8.2" height="8.2"/>
<rect x="416" y="48" width="8.2" height="8.2"/>
<rect x="424" y="48" width="8.2" height="8.2"/>
<rect x="432" y="48" width="8.2" height="8.2"/>
<rect x="440" y="48" width="8.2" height="8.2"/>
<rect x="448" y="48" width="8.2" height="8.2"/>
<rect x="456" y="48" width="8.2" height="8.2"/>
<rect x="472" y="48" width="8.2" height="8.2"/>
<rect x="488" y="48" width="8.2" height="8.2"/>
<rect x="496" y="48" width="8.2" height="8.2"/>
<rect x="504" y="48" width="8.2" height="8.2"/>
<rect x="376" y="56" width="8.2" height="8.2"/>
<rect x="400" y="56" width="8.2" height="8.2"/>
<rect x="408" y="56" width="8.2" height="8.2"/>
<rect x="424" y="56" width="8.2" height="8.2"/>
<rect x="456" y="56" width="8.2" height="8.2"/>
<rect x="480" y="56" width="8.2" height="8.2"/>
<rect x="504" y="56" width="8.2" height="8.2"/>
<rect x="376" y="64" width="8.2" height="8.2"/>
<rect x="392" y="64" width="8.2" height="8.2"/>
<rect x="408" y="64" width="8.2" height="8.2"/>
<rect x="424" y="64" width="8.2" height="8.2"/>
<rect x="440" y="64" width="8.2" height="8.2"/>
<rect x="456" y="64" width="8.2" height="8.2"/>
<rect x="472" y="64" width="8.2" height="8.2"/>
<rect x="488" y="64" width="8.2" height="8.2"/>
<rect x="504" y="64" width="8.2" height="8.2"/>
<rect x="376" y="72" width="8.2" height="8.2"/>
<rect x="400" y="72" width="8.2" height="8.2"/>
<rect x="440" y="72" width="8.2" height="8.2"/>
<rect x="464" y="72" width="8.2" height="8.2"/>
<rect x="480" y="72" width="8.2" height="8.2"/>
<rect x="496" y="72" width="8.2" height="8.2"/>
<rect x="312" y="80" width="8.2" height="8.2"/>
<rect x="328" y="80" width="8.2" height="8.2"/>
<rect x="336" y="80" width="8.2" height="8.2"/>
<rect x="344" y="80" width="8.2" height="8.2"/>
<rect x="352" y="80" width="8.2" height="8.2"/>
<rect x="360" y="80" width="8.2" height="8.2"/>
<rect x="384" y="80" width="8.2" height="8.2"/>
<rect x="400" y="80" width="8.2" height="8.2"/>
<rect x="408" y="80" width="8.2" height="8.2"/>
<rect x="424" y="80" width="8.2" height="8.2"/>
<rect x="440" y="80" width="8.2" height="8.2"/>
<rect x="472" y="80" width="8.2" height="8.2"/>
<rect x="480" y="80" width="8.2" height="8.2"/>
<rect x="488" y="80" width="8.2" height="8.2"/>
<rect x="520" y="80" width="8.2" height="8.2"/>
<rect x="528" y="80" width="8.2" height="8.2"/>
<rect x="536" y="80" width="8.2" height="8.2"/>
<rect x="544" y="80" width="8.2" height="8.2"/>
<rect x="552" y="80" width="8.2" height="8.2"/>
<rect x="312" y="88" width="8.2" height="8.2"/>
<rect x="328" y="88" width="8.2" height="8.2"/>
<rect x="336" y="88" width="8.2" height="8.2"/>
<rect x="368" y="88" width="8.2" height="8.2"/>
<rect x="384" y="88" width="8.2" height="8.2"/>
<rect x="392" y="88" width="8.2" height="8.2"/>
<rect x="408" y="88" width="8.2" height="8.2"/>
<rect x="416" y="88" width="8.2" height="8.2"/>
<rect x="432" y="88" width="8.2" height="8.2"/>
<rect x="440" y="88" width="8.2" height="8.2"/>
<rect x="448" y="88" width="8.2" height="8.2"/>
<rect x="456" y="88" width="8.2" height="8.2"/>
<rect x="472" y="88" width="8.2" height="8.2"/>
<rect x="480" y="88" width="8.2" height="8.2"/>
<rect x="512" y="88" width="8.2" height="8.2"/>
<rect x="520" y="88" width="8.2" height="8.2"/>
<rect x="528" y="88" width="8.2" height="8.2"/>
<rect x="568" y="88" width="8.2" height="8.2"/>
<rect x="320" y="96" width="8.2" height="8.2"/>
<rect x="328" y="96" width="8.2" height="8.2"/>
<rect x="360" y="96" width="8.2" height="8.2"/>
<rect x="384" y="96" width="8.2" height="8.2"/>
<rect x="392" y="96" width="8.2" height="8.2"/>
<rect x="400" y="96" width="8.2" height="8.2"/>
<rect x="416" y="96" width="8.2" height="8.2"/>
<rect x="424" y="96" width="8.2" height="8.2"/>
<rect x="432" y="96" width="8.2" height="8.2"/>
<rect x="440" y="96" width="8.2" height="8.2"/>
<rect x="448" y="96" width="8.2" height="8.2"/>
<rect x="472" y="96" width="8.2" height="8.2"/>
<rect x="480" y="96" width="8.2" height="8.2"/>
<rect x="504" y="96" width="8.2" height="8.2"/>
<rect x="512" y="96" width="8.2" height="8.2"/>
<rect x="528" y="96" width="8.2" height="8.2"/>
<rect x="536" y="96" width="8.2" height="8.2"/>
<rect x="552" y="96" width="8.2" height="8.2"/>
<rect x="560" y="96" width="8.2" height="8.2"/>
<rect x="320" y="104" width="8.2" height="8.2"/>
<rect x="352" y="104" width="8.2" height="8.2"/>
<rect x="368" y="104" width="8.2" height="8.2"/>
<rect x="376" y="104" width="8.2" height="8.2"/>
<rect x="384" y="104" width="8.2" height="8.2"/>
<rect x="392" y="104" width="8.2" height="8.2"/>
<rect x="400" y="104" width="8.2" height="8.2"/>
<rect x="408" y="104" width="8.2" height="8.2"/>
<rect x="416" y="104" width="8.2" height="8.2"/>
<rect x="432" y="104" width="8.2" height="8.2"/>
<rect x="448" y="104" width="8.2" height="8.2"/>
<rect x="456" y="104" width="8.2" height="8.2"/>
<rect x="464" y="104" width="8.2" height="8.2"/>
<rect x="472" y="104" width="8.2" height="8.2"/>
<rect x="480" y="104" width="8.2" height="8.2"/>
<rect x="504" y="104" width="8.2" height="8.2"/>
<rect x="512" y="104" width="8.2" height="8.2"/>
<rect x="544" y="104" width="8.2" height="8.2"/>
<rect x="552" y="104" width="8.2" height="8.2"/>
<rect x="568" y="104" width="8.2" height="8.2"/>
<rect x="312" y="112" width="8.2" height="8.2"/>
<rect x="320" y="112" width="8.2" height="8.2"/>
<rect x="352" y="112" width="8.2" height="8.2"/>
<rect x="360" y="112" width="8.2" height="8.2"/>
<rect x="384" y="112" width="8.2" height="8.2"/>
<rect x="480" y="112" width="8.2" height="8.2"/>
<rect x="488" y="112" width="8.2" height="8.2"/>
<rect x="512" y="112" width="8.2" height="8.2"/>
<rect x="528" y="112" width="8.2" height="8.2"/>
<rect x="536" y="112" width="8.2" height="8.2"/>
<rect x="544" y="112" width="8.2" height="8.2"/>
<rect x="312" y="120" width="8.2" height="8.2"/>
<rect x="320" y="120" width="8.2" height="8.2"/>
<rect x="336" y="120" width="8.2" height="8.2"/>
<rect x="344" y="120" width="8.2" height="8.2"/>
<rect x="352" y="120" width="8.2" height="8.2"/>
<rect x="368" y="120" width="8.2" height="8.2"/>
<rect x="384" y="120" width="8.2" height="8.2"/>
<rect x="496" y="120" width="8.2" height="8.2"/>
<rect x="504" y="120" width="8.2" height="8.2"/>
<rect x="520" y="120" width="8.2" height="8.2"/>
<rect x="552" y="120" width="8.2" height="8.2"/>
<rect x="560" y="120" width="8.2" height="8.2"/>
<rect x="568" y="120" width="8.2" height="8.2"/>
<rect x="312" y="128" width="8.2" height="8.2"/>
<rect x="320" y="128" width="8.2" height="8.2"/>
<rect x="336" y="128" width="8.2" height="8.2"/>
<rect x="344" y="128" width="8.2" height="8.2"/>
<rect x="352" y="128" width="8.2" height="8.2"/>
<rect x="360" y="128" width="8.2" height="8.2"/>
<rect x="376" y="128" width="8.2" height="8.2"/>
<rect x="392" y="128" width="8.2" height="8.2"/>
<rect x="480" y="128" width="8.2" height="8.2"/>
<rect x="488" y="128" width="8.2" height="8.2"/>
<rect x="536" y="128" width="8.2" height="8.2"/>
<rect x="544" y="128" width="8.2" height="8.2"/>
<rect x="560" y="128" width="8.2" height="8.2"/>
<rect x="328" y="136" width="8.2" height="8.2"/>
<rect x="336" y="136" width="8.2" height="8.2"/>
<rect x="352" y="136" width="8.2" height="8.2"/>
<rect x="368" y="136" width="8.2" height="8.2"/>
<rect x="376" y="136" width="8.2" height="8.2"/>
<rect x="392" y="136" width="8.2" height="8.2"/>
<rect x="480" y="136" width="8.2" height="8.2"/>
<rect x="496" y="136" width="8.2" height="8.2"/>
<rect x="520" y="136" width="8.2" height="8.2"/>
<rect x="544" y="136" width="8.2" height="8.2"/>
<rect x="552" y="136" width="8.2" height="8.2"/>
<rect x="560" y="136" width="8.2" height="8.2"/>
<rect x="568" y="136" width="8.2" height="8.2"/>
<rect x="312" y="144" width="8.2" height="8.2"/>
<rect x="320" y="144" width="8.2" height="8.2"/>
<rect x="328" y="144" width="8.2" height="8.2"/>
<rect x="336" y="144" width="8.2" height="8.2"/>
<rect x="360" y="144" width="8.2" height="8.2"/>
<rect x="488" y="144" width="8.2" height="8.2"/>
<rect x="496" y="144" width="8.2" height="8.2"/>
<rect x="512" y="144" width="8.2" height="8.2"/>
<rect x="528" y="144" width="8.2" height="8.2"/>
<rect x="536" y="144" width="8.2" height="8.2"/>
<rect x="544" y="144" width="8.2" height="8.2"/>
<rect x="552" y="144" width="8.2" height="8.2"/>
<rect x="560" y="144" width="8.2" height="8.2"/>
<rect x="312" y="152" width="8.2" height="8.2"/>
<rect x="328" y="152" width="8.2" height="8.2"/>
<rect x="336" y="152" width="8.2" height="8.2"/>
<rect x="352" y="152" width="8.2" height="8.2"/>
<rect x="368" y="152" width="8.2" height="8.2"/>
<rect x="392" y="152" width="8.2" height="8.2"/>
<rect x="496" y="152" width="8.2" height="8.2"/>
<rect x="520" y="152" width="8.2" height="8.2"/>
<rect x="552" y="152" width="8.2" height="8.2"/>
<rect x="328" y="160" width="8.2" height="8.2"/>
<rect x="336" y="160" width="8.2" height="8.2"/>
<rect x="352" y="160" width="8.2" height="8.2"/>
<rect x="360" y="160" width="8.2" height="8.2"/>
<rect x="376" y="160" width="8.2" height="8.2"/>
<rect x="384" y="160" width="8.2" height="8.2"/>
<rect x="392" y="160" width="8.2" height="8.2"/>
<rect x="488" y="160" width="8.2" height="8.2"/>
<rect x="504" y="160" width="8.2" height="8.2"/>
<rect x="520" y="160" width="8.2" height="8.2"/>
<rect x="536" y="160" width="8.2" height="8.2"/>
<rect x="552" y="160" width="8.2" height="8.2"/>
<rect x="560" y="160" width="8.2" height="8.2"/>
<rect x="312" y="168" width="8.2" height="8.2"/>
<rect x="336" y="168" width="8.2" height="8.2"/>
<rect x="344" y="168" width="8.2" height="8.2"/>
<rect x="384" y="168" width="8.2" height="8.2"/>
<rect x="392" y="168" width="8.2" height="8.2"/>
<rect x="480" y="168" width="8.2" height="8.2"/>
<rect x="496" y="168" width="8.2" height="8.2"/>
<rect x="520" y="168" width="8.2" height="8.2"/>
<rect x="536" y="168" width="8.2" height="8.2"/>
<rect x="552" y="168" width="8.2" height="8.2"/>
<rect x="312" y="176" width="8.2" height="8.2"/>
<rect x="320" y="176" width="8.2" height="8.2"/>
<rect x="328" y="176" width="8.2" height="8.2"/>
<rect x="352" y="176" width="8.2" height="8.2"/>
<rect x="360" y="176" width="8.2" height="8.2"/>
<rect x="368" y="176" width="8.2" height="8.2"/>
<rect x="384" y="176" width="8.2" height="8.2"/>
<rect x="400" y="176" width="8.2" height="8.2"/>
<rect x="504" y="176" width="8.2" height="8.2"/>
<rect x="512" y="176" width="8.2" height="8.2"/>
<rect x="536" y="176" width="8.2" height="8.2"/>
<rect x="544" y="176" width="8.2" height="8.2"/>
<rect x="560" y="176" width="8.2" height="8.2"/>
<rect x="312" y="184" width="8.2" height="8.2"/>
<rect x="336" y="184" width="8.2" height="8.2"/>
<rect x="352" y="184" width="8.2" height="8.2"/>
<rect x="376" y="184" width="8.2" height="8.2"/>
<rect x="392" y="184" width="8.2" height="8.2"/>
<rect x="408" y="184" width="8.2" height="8.2"/>
<rect x="416" y="184" width="8.2" height="8.2"/>
<rect x="424" y="184" width="8.2" height="8.2"/>
<rect x="432" y="184" width="8.2" height="8.2"/>
<rect x="440" y="184" width="8.2" height="8.2"/>
<rect x="472" y="184" width="8.2" height="8.2"/>
<rect x="488" y="184" width="8.2" height="8.2"/>
<rect x="496" y="184" width="8.2" height="8.2"/>
<rect x="512" y="184" width="8.2" height="8.2"/>
<rect x="520" y="184" width="8.2" height="8.2"/>
<rect x="528" y="184" width="8.2" height="8.2"/>
<rect x="544" y="184" width="8.2" height="8.2"/>
<rect x="552" y="184" width="8.2" height="8.2"/>
<rect x="560" y="184" width="8.2" height="8.2"/>
<rect x="568" y="184" width="8.2" height="8.2"/>
<rect x="312" y="192" width="8.2" height="8.2"/>
<rect x="336" y="192" width="8.2" height="8.2"/>
<rect x="344" y="192" width="8.2" height="8.2"/>
<rect x="360" y="192" width="8.2" height="8.2"/>
<rect x="368" y="192" width="8.2" height="8.2"/>
<rect x="384" y="192" width="8.2" height="8.2"/>
<rect x="392" y="192" width="8.2" height="8.2"/>
<rect x="400" y="192" width="8.2" height="8.2"/>
<rect x="472" y="192" width="8.2" height="8.2"/>
<rect x="488" y="192" width="8.2" height="8.2"/>
<rect x="512" y="192" width="8.2" height="8.2"/>
<rect x="544" y="192" width="8.2" height="8.2"/>
<rect x="552" y="192" width="8.2" height="8.2"/>
<rect x="560" y="192" width="8.2" height="8.2"/>
<rect x="312" y="200" width="8.2" height="8.2"/>
<rect x="328" y="200" width="8.2" height="8.2"/>
<rect x="352" y="200" width="8.2" height="8.2"/>
<rect x="408" y="200" width="8.2" height="8.2"/>
<rect x="440" y="200" width="8.2" height="8.2"/>
<rect x="456" y="200" width="8.2" height="8.2"/>
<rect x="464" y="200" width="8.2" height="8.2"/>
<rect x="480" y="200" width="8.2" height="8.2"/>
<rect x="488" y="200" width="8.2" height="8.2"/>
<rect x="496" y="200" width="8.2" height="8.2"/>
<rect x="504" y="200" width="8.2" height="8.2"/>
<rect x="520" y="200" width="8.2" height="8.2"/>
<rect x="528" y="200" width="8.2" height="8.2"/>
<rect x="544" y="200" width="8.2" height="8.2"/>
<rect x="552" y="200" width="8.2" height="8.2"/>
<rect x="560" y="200" width="8.2" height="8.2"/>
<rect x="312" y="208" width="8.2" height="8.2"/>
<rect x="328" y="208" width="8.2" height="8.2"/>
<rect x="344" y="208" width="8.2" height="8.2"/>
<rect x="352" y="208" width="8.2" height="8.2"/>
<rect x="360" y="208" width="8.2" height="8.2"/>
<rect x="368" y="208" width="8.2" height="8.2"/>
<rect x="376" y="208" width="8.2" height="8.2"/>
<rect x="384" y="208" width="8.2" height="8.2"/>
<rect x="392" y="208" width="8.2" height="8.2"/>
<rect x="400" y="208" width="8.2" height="8.2"/>
<rect x="448" y="208" width="8.2" height="8.2"/>
<rect x="464" y="208" width="8.2" height="8.2"/>
<rect x="472" y="208" width="8.2" height="8.2"/>
<rect x="480" y="208" width="8.2" height="8.2"/>
<rect x="488" y="208" width="8.2" height="8.2"/>
<rect x="504" y="208" width="8.2" height="8.2"/>
<rect x="512" y="208" width="8.2" height="8.2"/>
<rect x="520" y="208" width="8.2" height="8.2"/>
<rect x="528" y="208" width="8.2" height="8.2"/>
<rect x="536" y="208" width="8.2" height="8.2"/>
<rect x="544" y="208" width="8.2" height="8.2"/>
<rect x="560" y="208" width="8.2" height="8.2"/>
<rect x="376" y="216" width="8.2" height="8.2"/>
<rect x="400" y="216" width="8.2" height="8.2"/>
<rect x="440" y="216" width="8.2" height="8.2"/>
<rect x="448" y="216" width="8.2" height="8.2"/>
<rect x="456" y="216" width="8.2" height="8.2"/>
<rect x="464" y="216" width="8.2" height="8.2"/>
<rect x="488" y="216" width="8.2" height="8.2"/>
<rect x="496" y="216" width="8.2" height="8.2"/>
<rect x="504" y="216" width="8.2" height="8.2"/>
<rect x="536" y="216" width="8.2" height="8.2"/>
<rect x="560" y="216" width="8.2" height="8.2"/>
<rect x="568" y="216" width="8.2" height="8.2"/>
<rect x="384" y="224" width="8.2" height="8.2"/>
<rect x="400" y="224" width="8.2" height="8.2"/>
<rect x="424" y="224" width="8.2" height="8.2"/>
<rect x="432" y="224" width="8.2" height="8.2"/>
<rect x="440" y="224" width="8.2" height="8.2"/>
<rect x="448" y="224" width="8.2" height="8.2"/>
<rect x="472" y="224" width="8.2" height="8.2"/>
<rect x="480" y="224" width="8.2" height="8.2"/>
<rect x="496" y="224" width="8.2" height="8.2"/>
<rect x="504" y="224" width="8.2" height="8.2"/>
<rect x="520" y="224" width="8.2" height="8.2"/>
<rect x="536" y="224" width="8.2" height="8.2"/>
<rect x="560" y="224" width="8.2" height="8.2"/>
<rect x="376" y="232" width="8.2" height="8.2"/>
<rect x="384" y="232" width="8.2" height="8.2"/>
<rect x="400" y="232" width="8.2" height="8.2"/>
<rect x="416" y="232" width="8.2" height="8.2"/>
<rect x="432" y="232" width="8.2" height="8.2"/>
<rect x="448" y="232" width="8.2" height="8.2"/>
<rect x="456" y="232" width="8.2" height="8.2"/>
<rect x="464" y="232" width="8.2" height="8.2"/>
<rect x="472" y="232" width="8.2" height="8.2"/>
<rect x="480" y="232" width="8.2" height="8.2"/>
<rect x="488" y="232" width="8.2" height="8.2"/>
<rect x="496" y="232" width="8.2" height="8.2"/>
<rect x="504" y="232" width="8.2" height="8.2"/>
<rect x="536" y="232" width="8.2" height="8.2"/>
<rect x="552" y="232" width="8.2" height="8.2"/>
<rect x="560" y="232" width="8.2" height="8.2"/>
<rect x="376" y="240" width="8.2" height="8.2"/>
<rect x="400" y="240" width="8.2" height="8.2"/>
<rect x="440" y="240" width="8.2" height="8.2"/>
<rect x="464" y="240" width="8.2" height="8.2"/>
<rect x="488" y="240" width="8.2" height="8.2"/>
<rect x="504" y="240" width="8.2" height="8.2"/>
<rect x="512" y="240" width="8.2" height="8.2"/>
<rect x="520" y="240" width="8.2" height="8.2"/>
<rect x="528" y="240" width="8.2" height="8.2"/>
<rect x="536" y="240" width="8.2" height="8.2"/>
<rect x="568" y="240" width="8.2" height="8.2"/>
<rect x="376" y="248" width="8.2" height="8.2"/>
<rect x="384" y="248" width="8.2" height="8.2"/>
<rect x="408" y="248" width="8.2" height="8.2"/>
<rect x="432" y="248" width="8.2" height="8.2"/>
<rect x="448" y="248" width="8.2" height="8.2"/>
<rect x="456" y="248" width="8.2" height="8.2"/>
<rect x="464" y="248" width="8.2" height="8.2"/>
<rect x="472" y="248" width="8.2" height="8.2"/>
<rect x="504" y="248" width="8.2" height="8.2"/>
<rect x="528" y="248" width="8.2" height="8.2"/>
<rect x="536" y="248" width="8.2" height="8.2"/>
<rect x="560" y="248" width="8.2" height="8.2"/>
<rect x="568" y="248" width="8.2" height="8.2"/>
<rect x="376" y="256" width="8.2" height="8.2"/>
<rect x="392" y="256" width="8.2" height="8.2"/>
<rect x="400" y="256" width="8.2" height="8.2"/>
<rect x="408" y="256" width="8.2" height="8.2"/>
<rect x="416" y="256" width="8.2" height="8.2"/>
<rect x="424" y="256" width="8.2" height="8.2"/>
<rect x="432" y="256" width="8.2" height="8.2"/>
<rect x="440" y="256" width="8.2" height="8.2"/>
<rect x="448" y="256" width="8.2" height="8.2"/>
<rect x="480" y="256" width="8.2" height="8.2"/>
<rect x="504" y="256" width="8.2" height="8.2"/>
<rect x="512" y="256" width="8.2" height="8.2"/>
<rect x="520" y="256" width="8.2" height="8.2"/>
<rect x="528" y="256" width="8.2" height="8.2"/>
<rect x="552" y="256" width="8.2" height="8.2"/>
<rect x="384" y="264" width="8.2" height="8.2"/>
<rect x="392" y="264" width="8.2" height="8.2"/>
<rect x="400" y="264" width="8.2" height="8.2"/>
<rect x="408" y="264" width="8.2" height="8.2"/>
<rect x="424" y="264" width="8.2" height="8.2"/>
<rect x="432" y="264" width="8.2" height="8.2"/>
<rect x="464" y="264" width="8.2" height="8.2"/>
<rect x="472" y="264" width="8.2" height="8.2"/>
<rect x="480" y="264" width="8.2" height="8.2"/>
<rect x="496" y="264" width="8.2" height="8.2"/>
<rect x="504" y="264" width="8.2" height="8.2"/>
<rect x="536" y="264" width="8.2" height="8.2"/>
<rect x="544" y="264" width="8.2" height="8.2"/>
<rect x="552" y="264" width="8.2" height="8.2"/>
<rect x="376" y="272" width="8.2" height="8.2"/>
<rect x="384" y="272" width="8.2" height="8.2"/>
<rect x="392" y="272" width="8.2" height="8.2"/>
<rect x="400" y="272" width="8.2" height="8.2"/>
<rect x="408" y="272" width="8.2" height="8.2"/>
<rect x="416" y="272" width="8.2" height="8.2"/>
<rect x="432" y="272" width="8.2" height="8.2"/>
<rect x="440" y="272" width="8.2" height="8.2"/>
<rect x="448" y="272" width="8.2" height="8.2"/>
<rect x="456" y="272" width="8.2" height="8.2"/>
<rect x="464" y="272" width="8.2" height="8.2"/>
<rect x="488" y="272" width="8.2" height="8.2"/>
<rect x="496" y="272" width="8.2" height="8.2"/>
<rect x="504" y="272" width="8.2" height="8.2"/>
<rect x="512" y="272" width="8.2" height="8.2"/>
<rect x="520" y="272" width="8.2" height="8.2"/>
<rect x="536" y="272" width="8.2" height="8.2"/>
<rect x="560" y="272" width="8.2" height="8.2"/>
<path d="M312,16v56h56V16H312z M360,64h-40V24h40V64z"/>
<path d="M520,16v56h56V16H520z M568,64h-40V24h40V64z"/>
<path d="M312,224v56h56v-56H312z M360,272h-40v-40h40V272z"/>
<rect x="328" y="32" width="24" height="24"/>
<rect x="536" y="32" width="24" height="24"/>
<rect x="328" y="240" width="24" height="24"/>
<g>
	
		<image style="overflow:visible;enable-background:new    ;" width="256" height="256" xlink:href="75254BAE.jpg"  transform="matrix(0.2812 0 0 0.2812 408 112)">
	</image>
</g>
</svg>
