<svg id="图层_1" data-name="图层 1" xmlns="http://www.w3.org/2000/svg" viewBox="0 0 108.69081 14"><path d="M5.6546,13.76045V.23955h5.83565a5.13214,5.13214,0,0,1,3.32033.94987A3.36325,3.36325,0,0,1,15.97423,3.954a3.17657,3.17657,0,0,1-.43593,1.72,2.51339,2.51339,0,0,1-1.1727,1.0014v.10167a3.15215,3.15215,0,0,1,1.66017,1.078,3.233,3.233,0,0,1,.59888,2.03761,3.51213,3.51213,0,0,1-1.22354,2.83147,5.18466,5.18466,0,0,1-3.44846,1.03622ZM11.61,10.8844a2.221,2.221,0,0,0,1.26671-.33287,1.09443,1.09443,0,0,0,.49652-.968,1.02257,1.02257,0,0,0-.49652-.91505,2.35821,2.35821,0,0,0-1.28343-.31615H8.39276V5.47632h2.704a1.93856,1.93856,0,0,0,1.18941-.31615,1.09626,1.09626,0,0,0,.41922-.93315.93721.93721,0,0,0-.41086-.83844,2.126,2.126,0,0,0-1.18036-.273H8.83774v7.7688Z" transform="translate(-5.6546)"/><path d="M21.62187,10.8844h6.19568v2.87605H18.43872V.23955h3.18315Z" transform="translate(-5.6546)"/><path d="M34.73189,14a6.64541,6.64541,0,0,1-3.406-.83844,5.58893,5.58893,0,0,1-2.21658-2.41365A8.37832,8.37832,0,0,1,28.33078,7a8.37832,8.37832,0,0,1,.77855-3.74791A5.58893,5.58893,0,0,1,31.32591.83844a7.33587,7.33587,0,0,1,6.81128,0,5.589,5.589,0,0,1,2.21657,2.41365A8.37832,8.37832,0,0,1,41.13231,7a8.37832,8.37832,0,0,1-.77855,3.74791,5.589,5.589,0,0,1-2.21657,2.41365A6.64465,6.64465,0,0,1,34.73189,14Zm0-2.97772a2.95427,2.95427,0,0,0,1.66853-.47075,3.0097,3.0097,0,0,0,1.0954-1.37744A5.562,5.562,0,0,0,37.88092,7a5.562,5.562,0,0,0-.3851-2.17409,3.01693,3.01693,0,0,0-1.0954-1.37744,3.19357,3.19357,0,0,0-3.33775,0A3.00682,3.00682,0,0,0,31.968,4.82591,5.54923,5.54923,0,0,0,31.58287,7a5.54923,5.54923,0,0,0,.3851,2.17409,2.99964,2.99964,0,0,0,1.0947,1.37744A2.955,2.955,0,0,0,34.73189,11.02228Z" transform="translate(-5.6546)"/><path d="M49.26114,2.97772a3.51332,3.51332,0,0,0-1.81406.454A3.01823,3.01823,0,0,0,46.2493,4.79248,5.14473,5.14473,0,0,0,45.82173,7a5.41658,5.41658,0,0,0,.40181,2.21588,2.9124,2.9124,0,0,0,1.15529,1.35237,3.38614,3.38614,0,0,0,1.77994.454,3.64674,3.64674,0,0,0,1.27507-.20612,2.83185,2.83185,0,0,0,1.05154-.71867V8.74513H49.09053V5.85376h5.39206v5.71588a6.40792,6.40792,0,0,1-2.37047,1.83983A7.28173,7.28173,0,0,1,49.15877,14a6.87521,6.87521,0,0,1-3.45682-.8468,5.80729,5.80729,0,0,1-2.31059-2.422A7.963,7.963,0,0,1,42.56964,7a7.83163,7.83163,0,0,1,.83844-3.7312A5.88483,5.88483,0,0,1,45.76184.8468,7.055,7.055,0,0,1,49.26114,0a6.36634,6.36634,0,0,1,3.10724.702A4.71291,4.71291,0,0,1,54.3266,2.75627l-2.51532,1.7103A2.81906,2.81906,0,0,0,50.75,3.38022,2.8938,2.8938,0,0,0,49.26114,2.97772Z" transform="translate(-5.6546)"/><path d="M67.65947,14a6.6534,6.6534,0,0,1-3.40668-.83844,5.58743,5.58743,0,0,1-2.21588-2.41365A8.36886,8.36886,0,0,1,61.25836,7a8.36886,8.36886,0,0,1,.77855-3.74791A5.58743,5.58743,0,0,1,64.25279.83844a7.33727,7.33727,0,0,1,6.812,0,5.57912,5.57912,0,0,1,2.21588,2.41365A8.36873,8.36873,0,0,1,74.06058,7a8.36873,8.36873,0,0,1-.77994,3.74791,5.57912,5.57912,0,0,1-2.21588,2.41365A6.64458,6.64458,0,0,1,67.65947,14Zm0-2.97772a2.95582,2.95582,0,0,0,1.66852-.47075A2.99966,2.99966,0,0,0,70.4227,9.17409,5.53629,5.53629,0,0,0,70.8085,7a5.53629,5.53629,0,0,0-.3858-2.17409A3.00684,3.00684,0,0,0,69.328,3.44847a3.19231,3.19231,0,0,0-3.337,0,3.01817,3.01817,0,0,0-1.0961,1.37744A5.56242,5.56242,0,0,0,64.51045,7a5.56242,5.56242,0,0,0,.3844,2.17409,3.01093,3.01093,0,0,0,1.0961,1.37744A2.95262,2.95262,0,0,0,67.65947,11.02228Z" transform="translate(-5.6546)"/><path d="M79.05641,13.76045H75.87256V.23955h9.05362V3.21727H79.05641v2.688h5.45891V8.883H79.05641Z" transform="translate(-5.6546)"/><path d="M90.812.23955h3.851L97.3844,5.81894h.10307L100.20752.23955h3.851L99.02786,8.66017v5.10028H95.844V8.66017Z" transform="translate(-5.6546)"/><path d="M108.47493,13.76045h-3.18384V.23955h9.05431V3.21727h-5.87047v2.688h5.45961V8.883h-5.45961Z" transform="translate(-5.6546)"/></svg>