<?xml version="1.0" encoding="utf-8"?>
<!-- Generator: Adobe Illustrator 25.4.1, SVG Export Plug-In . SVG Version: 6.00 Build 0)  -->
<svg version="1.1" id="图层_1" xmlns="http://www.w3.org/2000/svg" xmlns:xlink="http://www.w3.org/1999/xlink" x="0px" y="0px"
	 viewBox="0 0 120 14" style="enable-background:new 0 0 120 14;" xml:space="preserve">
<g>
	<path d="M5.7,13.8V0.2h5.8c1.4,0,2.5,0.3,3.3,0.9C15.6,1.8,16,2.7,16,4c0,0.7-0.1,1.3-0.4,1.7c-0.3,0.5-0.7,0.8-1.2,1v0.1
		C15.1,7,15.6,7.3,16,7.9c0.4,0.5,0.6,1.2,0.6,2c0,1.2-0.4,2.1-1.2,2.8c-0.8,0.7-2,1-3.4,1H5.7z M11.6,10.9c0.5,0,0.9-0.1,1.3-0.3
		c0.3-0.2,0.5-0.5,0.5-1c0-0.4-0.2-0.7-0.5-0.9c-0.3-0.2-0.8-0.3-1.3-0.3H8.4V5.5h2.7c0.5,0,0.9-0.1,1.2-0.3
		c0.3-0.2,0.4-0.5,0.4-0.9c0-0.4-0.1-0.7-0.4-0.8c-0.3-0.2-0.7-0.3-1.2-0.3H8.8v7.8H11.6z"/>
	<path d="M21.6,10.9h6.2v2.9h-9.4V0.2h3.2V10.9z"/>
	<path d="M34.7,14c-1.3,0-2.4-0.3-3.4-0.8c-1-0.6-1.7-1.4-2.2-2.4c-0.5-1.1-0.8-2.3-0.8-3.7s0.3-2.7,0.8-3.7
		c0.5-1.1,1.3-1.9,2.2-2.4c1-0.6,2.1-0.8,3.4-0.8c1.3,0,2.4,0.3,3.4,0.8c1,0.6,1.7,1.4,2.2,2.4c0.5,1.1,0.8,2.3,0.8,3.7
		s-0.3,2.7-0.8,3.7c-0.5,1.1-1.3,1.9-2.2,2.4C37.2,13.7,36,14,34.7,14z M34.7,11c0.6,0,1.2-0.2,1.7-0.5c0.5-0.3,0.8-0.8,1.1-1.4
		c0.3-0.6,0.4-1.3,0.4-2.2s-0.1-1.6-0.4-2.2c-0.3-0.6-0.6-1.1-1.1-1.4c-0.5-0.3-1-0.5-1.7-0.5c-0.6,0-1.2,0.2-1.7,0.5
		c-0.5,0.3-0.8,0.8-1.1,1.4c-0.3,0.6-0.4,1.3-0.4,2.2s0.1,1.6,0.4,2.2c0.3,0.6,0.6,1.1,1.1,1.4S34.1,11,34.7,11z"/>
	<path d="M49.3,3c-0.7,0-1.3,0.2-1.8,0.5c-0.5,0.3-0.9,0.8-1.2,1.4C46,5.4,45.8,6.1,45.8,7c0,0.9,0.1,1.6,0.4,2.2s0.7,1.1,1.2,1.4
		c0.5,0.3,1.1,0.5,1.8,0.5c0.5,0,0.9-0.1,1.3-0.2c0.4-0.1,0.7-0.4,1.1-0.7V8.7h-2.4V5.9h5.4v5.7c-0.7,0.8-1.5,1.4-2.4,1.8
		c-0.9,0.4-1.9,0.6-3,0.6c-1.3,0-2.5-0.3-3.5-0.8c-1-0.6-1.8-1.4-2.3-2.4c-0.5-1.1-0.8-2.3-0.8-3.7s0.3-2.7,0.8-3.7
		c0.6-1,1.3-1.9,2.4-2.4c1-0.6,2.2-0.8,3.5-0.8c1.2,0,2.3,0.2,3.1,0.7c0.8,0.5,1.5,1.2,2,2.1l-2.5,1.7c-0.3-0.5-0.6-0.8-1.1-1.1
		C50.3,3.1,49.8,3,49.3,3z"/>
	<path d="M67.7,14c-1.3,0-2.4-0.3-3.4-0.8c-1-0.6-1.7-1.4-2.2-2.4c-0.5-1.1-0.8-2.3-0.8-3.7s0.3-2.7,0.8-3.7
		c0.5-1.1,1.3-1.9,2.2-2.4c1-0.6,2.1-0.8,3.4-0.8c1.3,0,2.4,0.3,3.4,0.8c1,0.6,1.7,1.4,2.2,2.4c0.5,1.1,0.8,2.3,0.8,3.7
		s-0.3,2.7-0.8,3.7c-0.5,1.1-1.3,1.9-2.2,2.4C70.1,13.7,69,14,67.7,14z M67.7,11c0.6,0,1.2-0.2,1.7-0.5c0.5-0.3,0.8-0.8,1.1-1.4
		c0.3-0.6,0.4-1.3,0.4-2.2s-0.1-1.6-0.4-2.2c-0.3-0.6-0.6-1.1-1.1-1.4c-0.5-0.3-1-0.5-1.7-0.5C67,3,66.5,3.1,66,3.4
		c-0.5,0.3-0.8,0.8-1.1,1.4c-0.3,0.6-0.4,1.3-0.4,2.2s0.1,1.6,0.4,2.2c0.3,0.6,0.6,1.1,1.1,1.4C66.5,10.9,67,11,67.7,11z"/>
	<path d="M79.1,13.8h-3.2V0.2h9.1v3h-5.9v2.7h5.5v3h-5.5V13.8z"/>
	<path d="M90.8,0.2h3.9l2.7,5.6h0.1l2.7-5.6h3.9l-5,8.4v5.1h-3.2V8.7L90.8,0.2z"/>
	<path d="M108.5,13.8h-3.2V0.2h9.1v3h-5.9v2.7h5.5v3h-5.5V13.8z"/>
</g>
</svg>
