<svg id="图层_1" data-name="图层 1" xmlns="http://www.w3.org/2000/svg" viewBox="0 0 492.78237 633.08973"><defs><style>.cls-1,.cls-10,.cls-12,.cls-14,.cls-2,.cls-3,.cls-4,.cls-5,.cls-6,.cls-7,.cls-8,.cls-9{fill:none;}.cls-1{stroke:#ff7f0e;}.cls-1,.cls-10,.cls-2,.cls-3,.cls-4,.cls-5,.cls-6,.cls-7,.cls-8,.cls-9{stroke-width:0.72644px;}.cls-2{stroke:#8c564b;}.cls-3{stroke:#7f7f7f;}.cls-4{stroke:#bcbd22;}.cls-14,.cls-5{stroke:#1f77b4;}.cls-6{stroke:#9467bd;}.cls-7{stroke:#2ca02c;}.cls-8{stroke:#e377c2;}.cls-9{stroke:#17becf;}.cls-10{stroke:#d62728;}.cls-11{font-size:11.91015px;font-family:MicrosoftYaHeiLight, Microsoft YaHei;}.cls-13{fill:#fff;}.cls-14{stroke-width:0.96859px;}</style></defs><path class="cls-1" d="M167.00775,508.58008c29.77537,0,29.77537-298.12584,59.55073-298.12584" transform="translate(-153.60882 -195.56658)"/><path class="cls-2" d="M167.00775,508.58008c29.77537,0,29.77537-275.79435,59.55073-275.79435" transform="translate(-153.60882 -195.56658)"/><path class="cls-3" d="M167.00775,508.58008c29.77537,0,29.77537-244.158,59.55073-244.158" transform="translate(-153.60882 -195.56658)"/><path class="cls-4" d="M167.00775,508.58008c29.77537,0,29.77537-203.21684,59.55073-203.21684" transform="translate(-153.60882 -195.56658)"/><path class="cls-5" d="M167.00775,508.58008c29.77537,0,29.77537-152.97091,59.55073-152.97091" transform="translate(-153.60882 -195.56658)"/><path class="cls-6" d="M167.00775,508.58008c29.77537,0,29.77537-65.50584,59.55073-65.50584" transform="translate(-153.60882 -195.56658)"/><path class="cls-7" d="M167.00775,508.58008c29.77537,0,29.77537,12.65452,59.55073,12.65452" transform="translate(-153.60882 -195.56658)"/><path class="cls-1" d="M167.00775,508.58008c29.77537,0,29.77537,53.59563,59.55073,53.59563" transform="translate(-153.60882 -195.56658)"/><path class="cls-6" d="M167.00775,508.58008c29.77537,0,29.77537,94.53679,59.55073,94.53679" transform="translate(-153.60882 -195.56658)"/><path class="cls-3" d="M167.00775,508.58008c29.77537,0,29.77537,163.39234,59.55073,163.39234" transform="translate(-153.60882 -195.56658)"/><path class="cls-3" d="M167.00775,508.58008c29.77537,0,29.77537,241.55265,59.55073,241.55265" transform="translate(-153.60882 -195.56658)"/><path class="cls-1" d="M167.00775,508.58008c29.77537,0,29.77537,301.10339,59.55073,301.10339" transform="translate(-153.60882 -195.56658)"/><path class="cls-7" d="M310.67385,210.45424h59.55074" transform="translate(-153.60882 -195.56658)"/><path class="cls-8" d="M358.31448,232.78573h59.55073" transform="translate(-153.60882 -195.56658)"/><path class="cls-4" d="M286.85354,264.42213c29.77536,0,29.77536-9.30481,59.55073-9.30481" transform="translate(-153.60882 -195.56658)"/><path class="cls-9" d="M286.85354,264.42213c29.77536,0,29.77536,9.30481,59.55073,9.30481" transform="translate(-153.60882 -195.56658)"/><path class="cls-9" d="M286.85354,305.36324c29.77536,0,29.77536-9.30481,59.55073-9.30481" transform="translate(-153.60882 -195.56658)"/><path class="cls-5" d="M286.85354,305.36324c29.77536,0,29.77536,9.30481,59.55073,9.30481" transform="translate(-153.60882 -195.56658)"/><path class="cls-1" d="M322.584,355.60917c29.77541,0,29.77541-18.60963,59.55073-18.60963" transform="translate(-153.60882 -195.56658)"/><path class="cls-7" d="M322.584,355.60917h59.55073" transform="translate(-153.60882 -195.56658)"/><path class="cls-10" d="M322.584,355.60917c29.77541,0,29.77541,18.60957,59.55073,18.60957" transform="translate(-153.60882 -195.56658)"/><path class="cls-2" d="M346.40427,443.07424c29.77537,0,29.77537-46.524,59.55074-46.524" transform="translate(-153.60882 -195.56658)"/><path class="cls-8" d="M346.40427,443.07424c29.77537,0,29.77537-27.91434,59.55074-27.91434" transform="translate(-153.60882 -195.56658)"/><path class="cls-3" d="M346.40427,443.07424c29.77537,0,29.77537-9.30476,59.55074-9.30476" transform="translate(-153.60882 -195.56658)"/><path class="cls-4" d="M346.40427,443.07424c29.77537,0,29.77537,9.30486,59.55074,9.30486" transform="translate(-153.60882 -195.56658)"/><path class="cls-9" d="M346.40427,443.07424c29.77537,0,29.77537,27.91444,59.55074,27.91444" transform="translate(-153.60882 -195.56658)"/><path class="cls-5" d="M346.40427,443.07424c29.77537,0,29.77537,46.52406,59.55074,46.52406" transform="translate(-153.60882 -195.56658)"/><path class="cls-10" d="M310.67385,521.2346c29.77537,0,29.77537-9.30481,59.55074-9.30481" transform="translate(-153.60882 -195.56658)"/><path class="cls-6" d="M310.67385,521.2346c29.77537,0,29.77537,9.30481,59.55074,9.30481" transform="translate(-153.60882 -195.56658)"/><path class="cls-7" d="M310.67385,562.17571c29.77537,0,29.77537-9.30476,59.55074-9.30476" transform="translate(-153.60882 -195.56658)"/><path class="cls-10" d="M310.67385,562.17571c29.77537,0,29.77537,9.30481,59.55074,9.30481" transform="translate(-153.60882 -195.56658)"/><path class="cls-2" d="M346.40427,603.11687c29.77537,0,29.77537-9.30481,59.55074-9.30481" transform="translate(-153.60882 -195.56658)"/><path class="cls-8" d="M346.40427,603.11687c29.77537,0,29.77537,9.30481,59.55074,9.30481" transform="translate(-153.60882 -195.56658)"/><path class="cls-4" d="M286.85354,671.97242c29.77536,0,29.77536-37.21925,59.55073-37.21925" transform="translate(-153.60882 -195.56658)"/><path class="cls-9" d="M286.85354,671.97242c29.77536,0,29.77536-18.60962,59.55073-18.60962" transform="translate(-153.60882 -195.56658)"/><path class="cls-5" d="M286.85354,671.97242h59.55073" transform="translate(-153.60882 -195.56658)"/><path class="cls-1" d="M286.85354,671.97242c29.77536,0,29.77536,18.60958,59.55073,18.60958" transform="translate(-153.60882 -195.56658)"/><path class="cls-7" d="M286.85354,671.97242c29.77536,0,29.77536,37.21915,59.55073,37.21915" transform="translate(-153.60882 -195.56658)"/><path class="cls-4" d="M310.67385,750.13273c29.77537,0,29.77537-18.60962,59.55074-18.60962" transform="translate(-153.60882 -195.56658)"/><path class="cls-9" d="M310.67385,750.13273h59.55074" transform="translate(-153.60882 -195.56658)"/><path class="cls-5" d="M310.67385,750.13273c29.77537,0,29.77537,18.60962,59.55074,18.60962" transform="translate(-153.60882 -195.56658)"/><path class="cls-7" d="M310.67385,809.68347c29.77537,0,29.77537-18.60963,59.55074-18.60963" transform="translate(-153.60882 -195.56658)"/><path class="cls-10" d="M310.67385,809.68347h59.55074" transform="translate(-153.60882 -195.56658)"/><path class="cls-6" d="M310.67385,809.68347c29.77537,0,29.77537,18.60962,59.55074,18.60962" transform="translate(-153.60882 -195.56658)"/><line class="cls-6" x1="215.8714" y1="632.72646" x2="278.39964" y2="632.72646"/><text class="cls-11" transform="translate(222.57133 629.74934)">发放问卷</text><rect class="cls-12" x="222.57087" y="617.8388" width="48.38494" height="14.88771"/><line class="cls-10" x1="215.8714" y1="614.11693" x2="302.21996" y2="614.11693"/><text class="cls-11" transform="translate(222.57133 611.13996)">设计调研问卷</text><rect class="cls-12" x="222.57087" y="599.22927" width="72.20526" height="14.88766"/><line class="cls-7" x1="215.8714" y1="595.50731" x2="302.21996" y2="595.50731"/><text class="cls-11" transform="translate(222.57133 592.52863)">定义调研目标</text><rect class="cls-12" x="222.57087" y="580.61965" width="72.20526" height="14.88771"/><line class="cls-5" x1="215.8714" y1="573.17572" x2="361.77065" y2="573.17572"/><text class="cls-11" transform="translate(222.57133 570.1966)">用户在平台上的使用习惯</text><rect class="cls-12" x="222.57087" y="558.28806" width="131.75604" height="14.88771"/><line class="cls-9" x1="215.8714" y1="554.56615" x2="326.04027" y2="554.56615"/><text class="cls-11" transform="translate(222.57133 551.58723)">用户观看内容偏好</text><rect class="cls-12" x="222.57087" y="539.67849" width="96.02557" height="14.88766"/><line class="cls-4" x1="215.8714" y1="535.95653" x2="290.30985" y2="535.95653"/><text class="cls-11" transform="translate(222.57133 532.97785)">用户活跃度</text><rect class="cls-12" x="222.57087" y="521.06887" width="60.2951" height="14.88771"/><line class="cls-7" x1="192.05114" y1="513.62504" x2="290.30985" y2="513.62504"/><text class="cls-11" transform="translate(198.75004 510.64777)">内容质量评估法</text><rect class="cls-12" x="198.75056" y="498.73737" width="84.11541" height="14.88771"/><line class="cls-1" x1="192.05114" y1="495.01546" x2="266.48953" y2="495.01546"/><text class="cls-11" transform="translate(198.75004 492.0384)">竞品分析法</text><rect class="cls-12" x="198.75056" y="480.1278" width="60.29515" height="14.88766"/><line class="cls-5" x1="192.05114" y1="476.40584" x2="278.39964" y2="476.40584"/><text class="cls-11" transform="translate(198.75004 473.42902)">客户端分析法</text><rect class="cls-12" x="198.75056" y="461.51818" width="72.20526" height="14.88766"/><line class="cls-9" x1="192.05114" y1="457.79621" x2="266.48953" y2="457.79621"/><text class="cls-11" transform="translate(198.75004 454.81769)">网页性能法</text><rect class="cls-12" x="198.75056" y="442.90855" width="60.29515" height="14.88771"/><line class="cls-4" x1="192.05114" y1="439.18664" x2="266.48953" y2="439.18664"/><text class="cls-11" transform="translate(198.75004 436.20832)">问卷调查法</text><rect class="cls-12" x="198.75056" y="424.29898" width="60.29515" height="14.88766"/><line class="cls-8" x1="251.60183" y1="416.85515" x2="445.14174" y2="416.85515"/><text class="cls-11" transform="translate(258.30229 413.87629)">用户浏览和创造行为的影影响因素</text><rect class="cls-12" x="258.30129" y="401.96749" width="179.39652" height="14.88766"/><line class="cls-2" x1="251.60183" y1="398.24548" x2="373.68085" y2="398.24548"/><text class="cls-11" transform="translate(258.30229 395.26691)">用户特征与使用场景</text><rect class="cls-12" x="258.30129" y="383.35782" width="107.93573" height="14.88771"/><line class="cls-10" x1="215.8714" y1="375.91399" x2="445.14174" y2="375.91399"/><text class="cls-11" transform="translate(222.57133 372.93684)">交互、内容、界面和功能的用户体验影响</text><rect class="cls-12" x="222.57087" y="361.02633" width="215.12695" height="14.88771"/><line class="cls-7" x1="215.8714" y1="357.30441" x2="349.86058" y2="357.30441"/><text class="cls-11" transform="translate(222.57133 354.32746)">提升用户粘性和活跃度</text><rect class="cls-12" x="222.57087" y="342.41671" width="119.84584" height="14.88771"/><line class="cls-6" x1="215.8714" y1="334.97283" x2="397.50111" y2="334.97283"/><text class="cls-11" transform="translate(222.57133 331.99543)">使用频率和观看内容偏好的调查</text><rect class="cls-12" x="222.57087" y="320.08517" width="167.48641" height="14.88771"/><line class="cls-10" x1="215.8714" y1="316.36321" x2="314.13011" y2="316.36321"/><text class="cls-11" transform="translate(222.57133 313.38557)">调研背景与目的</text><rect class="cls-12" x="222.57087" y="301.47559" width="84.11541" height="14.88766"/><line class="cls-5" x1="251.60183" y1="294.03172" x2="314.13007" y2="294.03172"/><text class="cls-11" transform="translate(258.30229 291.05353)">营销效应</text><rect class="cls-12" x="258.30129" y="279.14406" width="48.38499" height="14.88771"/><line class="cls-9" x1="251.60183" y1="275.42209" x2="314.13007" y2="275.42209"/><text class="cls-11" transform="translate(258.30229 272.44416)">粉丝互动</text><rect class="cls-12" x="258.30129" y="260.53448" width="48.38499" height="14.88766"/><line class="cls-4" x1="251.60183" y1="256.81252" x2="314.13007" y2="256.81252"/><text class="cls-11" transform="translate(258.30229 253.83478)">内容偏好</text><rect class="cls-12" x="258.30129" y="241.92486" width="48.38499" height="14.88766"/><line class="cls-3" x1="251.60183" y1="238.2029" x2="337.95038" y2="238.2029"/><text class="cls-11" transform="translate(258.30229 235.22541)">用户使用习惯</text><rect class="cls-12" x="258.30129" y="223.31523" width="72.20526" height="14.88766"/><line class="cls-8" x1="251.60183" y1="219.59332" x2="337.95038" y2="219.59332"/><text class="cls-11" transform="translate(258.30229 216.61603)">用户界面设计</text><rect class="cls-12" x="258.30129" y="204.70566" width="72.20526" height="14.88766"/><line class="cls-2" x1="251.60183" y1="200.9837" x2="349.86058" y2="200.9837"/><text class="cls-11" transform="translate(258.30229 198.00666)">个性化推荐系统</text><rect class="cls-12" x="258.30129" y="186.09604" width="84.11541" height="14.88766"/><line class="cls-10" x1="227.78156" y1="178.65216" x2="397.50111" y2="178.65216"/><text class="cls-11" transform="translate(234.48051 175.67463)">辅助用户选择适合的视频平台</text><rect class="cls-12" x="234.48098" y="163.7645" width="155.5763" height="14.88771"/><line class="cls-7" x1="227.78156" y1="160.04258" x2="373.68076" y2="160.04258"/><text class="cls-11" transform="translate(234.48051 157.06428)">提供改进建议和优化服务</text><rect class="cls-12" x="234.48098" y="145.15492" width="131.75604" height="14.88766"/><line class="cls-1" x1="227.78156" y1="141.43296" x2="385.59101" y2="141.43296"/><text class="cls-11" transform="translate(234.48051 138.4549)">提升用户体验和平台竞争力</text><rect class="cls-12" x="234.48098" y="126.5453" width="143.66615" height="14.88771"/><line class="cls-5" x1="192.05114" y1="119.10142" x2="433.23163" y2="119.10142"/><text class="cls-11" transform="translate(198.75004 116.12385)">移动互联网视频业务用户体验质量的重要性</text><rect class="cls-12" x="198.75056" y="104.21381" width="227.03715" height="14.88766"/><line class="cls-9" x1="192.05114" y1="100.49185" x2="361.77065" y2="100.49185"/><text class="cls-11" transform="translate(198.75004 97.51447)">短视频平台用户体验的重要性</text><rect class="cls-12" x="198.75056" y="85.60419" width="155.57635" height="14.88766"/><line class="cls-9" x1="192.05114" y1="78.16036" x2="385.59101" y2="78.16036"/><text class="cls-11" transform="translate(198.75004 75.18244)">用户对短视频平台使用感受和建议</text><rect class="cls-12" x="198.75056" y="63.2727" width="179.39657" height="14.88766"/><line class="cls-4" x1="192.05114" y1="59.55074" x2="361.77065" y2="59.55074"/><text class="cls-11" transform="translate(198.75004 56.57307)">用户体验与满意度的深入研究</text><rect class="cls-12" x="198.75056" y="44.66308" width="155.57635" height="14.88766"/><line class="cls-8" x1="263.51203" y1="37.21915" x2="492.78237" y2="37.21915"/><text class="cls-11" transform="translate(270.21244 34.24103)">内容质量、用户体验、活跃用户数的差异</text><rect class="cls-12" x="270.21145" y="22.33158" width="215.12699" height="14.88766"/><line class="cls-7" x1="215.8714" y1="14.88766" x2="433.23163" y2="14.88766"/><text class="cls-11" transform="translate(222.57133 11.90998)">获取新鲜资讯、学习新知识、娱乐放松</text><rect class="cls-12" x="222.57087" width="203.21684" height="14.88775"/><line class="cls-1" x1="72.20526" y1="614.11693" x2="158.55381" y2="614.11693"/><path class="cls-13" d="M315.14018,809.68351a4.46609,4.46609,0,1,1-.34-1.70923A4.42346,4.42346,0,0,1,315.14018,809.68351Z" transform="translate(-153.60882 -195.56658)"/><path class="cls-1" d="M315.14018,809.68351a4.46609,4.46609,0,1,1-.34-1.70923A4.42346,4.42346,0,0,1,315.14018,809.68351Z" transform="translate(-153.60882 -195.56658)"/><text class="cls-11" transform="translate(78.90434 611.13996)">用户调研方法</text><rect class="cls-12" x="78.90468" y="599.22927" width="72.2053" height="14.88766"/><line class="cls-3" x1="72.20526" y1="554.56615" x2="158.55381" y2="554.56615"/><path class="cls-13" d="M315.14018,750.13273a4.466,4.466,0,1,1-.34-1.70924A4.42362,4.42362,0,0,1,315.14018,750.13273Z" transform="translate(-153.60882 -195.56658)"/><path class="cls-3" d="M315.14018,750.13273a4.466,4.466,0,1,1-.34-1.70924A4.42362,4.42362,0,0,1,315.14018,750.13273Z" transform="translate(-153.60882 -195.56658)"/><text class="cls-11" transform="translate(78.90434 551.58723)">用户行为特征</text><rect class="cls-12" x="78.90468" y="539.67849" width="72.2053" height="14.88766"/><line class="cls-3" x1="72.20526" y1="476.40584" x2="134.7335" y2="476.40584"/><path class="cls-13" d="M291.31986,671.97242a4.46632,4.46632,0,1,1-.34-1.70924A4.42346,4.42346,0,0,1,291.31986,671.97242Z" transform="translate(-153.60882 -195.56658)"/><path class="cls-3" d="M291.31986,671.97242a4.46632,4.46632,0,1,1-.34-1.70924A4.42346,4.42346,0,0,1,291.31986,671.97242Z" transform="translate(-153.60882 -195.56658)"/><text class="cls-11" transform="translate(78.90434 473.42902)">研究方法</text><rect class="cls-12" x="78.90468" y="461.51818" width="48.38499" height="14.88766"/><line class="cls-6" x1="72.20526" y1="407.55029" x2="194.28428" y2="407.55029"/><path class="cls-13" d="M350.8706,603.11687a4.46632,4.46632,0,1,1-.34-1.70923A4.42371,4.42371,0,0,1,350.8706,603.11687Z" transform="translate(-153.60882 -195.56658)"/><path class="cls-6" d="M350.8706,603.11687a4.46632,4.46632,0,1,1-.34-1.70923A4.42371,4.42371,0,0,1,350.8706,603.11687Z" transform="translate(-153.60882 -195.56658)"/><text class="cls-11" transform="translate(78.90434 404.5716)">短视频用户行为分析</text><rect class="cls-12" x="78.90468" y="392.66263" width="107.93573" height="14.88766"/><line class="cls-1" x1="72.20526" y1="366.60913" x2="158.55381" y2="366.60913"/><path class="cls-13" d="M315.14018,562.17571a4.466,4.466,0,1,1-.34-1.70919A4.42405,4.42405,0,0,1,315.14018,562.17571Z" transform="translate(-153.60882 -195.56658)"/><path class="cls-1" d="M315.14018,562.17571a4.466,4.466,0,1,1-.34-1.70919A4.42405,4.42405,0,0,1,315.14018,562.17571Z" transform="translate(-153.60882 -195.56658)"/><text class="cls-11" transform="translate(78.90434 363.63215)">用户体验优化</text><rect class="cls-12" x="78.90468" y="351.72147" width="72.2053" height="14.88771"/><line class="cls-7" x1="72.20526" y1="325.66802" x2="158.55381" y2="325.66802"/><path class="cls-13" d="M315.14018,521.2346a4.466,4.466,0,1,1-.34-1.70919A4.4239,4.4239,0,0,1,315.14018,521.2346Z" transform="translate(-153.60882 -195.56658)"/><path class="cls-7" d="M315.14018,521.2346a4.466,4.466,0,1,1-.34-1.70919A4.4239,4.4239,0,0,1,315.14018,521.2346Z" transform="translate(-153.60882 -195.56658)"/><text class="cls-11" transform="translate(78.90434 322.69074)">用户反馈调研</text><rect class="cls-12" x="78.90468" y="310.78036" width="72.2053" height="14.88771"/><line class="cls-6" x1="72.20526" y1="247.50771" x2="194.28428" y2="247.50771"/><path class="cls-13" d="M350.8706,443.07429a4.46651,4.46651,0,1,1-.34-1.70919A4.42333,4.42333,0,0,1,350.8706,443.07429Z" transform="translate(-153.60882 -195.56658)"/><path class="cls-6" d="M350.8706,443.07429a4.46651,4.46651,0,1,1-.34-1.70919A4.42333,4.42333,0,0,1,350.8706,443.07429Z" transform="translate(-153.60882 -195.56658)"/><text class="cls-11" transform="translate(78.90434 244.5301)">用户体验的关键因素</text><rect class="cls-12" x="78.90468" y="232.62005" width="107.93573" height="14.88771"/><line class="cls-5" x1="72.20526" y1="160.04258" x2="170.46397" y2="160.04258"/><path class="cls-13" d="M327.05029,355.60917a4.46651,4.46651,0,1,1-.34-1.70919A4.42369,4.42369,0,0,1,327.05029,355.60917Z" transform="translate(-153.60882 -195.56658)"/><path class="cls-5" d="M327.05029,355.60917a4.46651,4.46651,0,1,1-.34-1.70919A4.42369,4.42369,0,0,1,327.05029,355.60917Z" transform="translate(-153.60882 -195.56658)"/><text class="cls-11" transform="translate(78.90434 157.06428)">研究意义及目的</text><rect class="cls-12" x="78.90468" y="145.15492" width="84.11546" height="14.88766"/><line class="cls-4" x1="72.20526" y1="109.79666" x2="134.7335" y2="109.79666"/><path class="cls-13" d="M291.31986,305.36324a4.46632,4.46632,0,1,1-.34-1.70919A4.42352,4.42352,0,0,1,291.31986,305.36324Z" transform="translate(-153.60882 -195.56658)"/><path class="cls-4" d="M291.31986,305.36324a4.46632,4.46632,0,1,1-.34-1.70919A4.42352,4.42352,0,0,1,291.31986,305.36324Z" transform="translate(-153.60882 -195.56658)"/><text class="cls-11" transform="translate(78.90434 106.81916)">研究背景</text><rect class="cls-12" x="78.90468" y="94.909" width="48.38499" height="14.88766"/><line class="cls-3" x1="72.20526" y1="68.85555" x2="134.7335" y2="68.85555"/><path class="cls-13" d="M291.31986,264.42213a4.46632,4.46632,0,1,1-.34-1.70919A4.42317,4.42317,0,0,1,291.31986,264.42213Z" transform="translate(-153.60882 -195.56658)"/><path class="cls-3" d="M291.31986,264.42213a4.46632,4.46632,0,1,1-.34-1.70919A4.42317,4.42317,0,0,1,291.31986,264.42213Z" transform="translate(-153.60882 -195.56658)"/><text class="cls-11" transform="translate(78.90434 65.87775)">用户研究</text><rect class="cls-12" x="78.90468" y="53.96789" width="48.38499" height="14.88766"/><line class="cls-2" x1="72.20526" y1="37.21915" x2="206.19439" y2="37.21915"/><path class="cls-13" d="M362.78076,232.78573a4.46707,4.46707,0,1,1-.34-1.70909A4.42436,4.42436,0,0,1,362.78076,232.78573Z" transform="translate(-153.60882 -195.56658)"/><path class="cls-2" d="M362.78076,232.78573a4.46707,4.46707,0,1,1-.34-1.70909A4.42436,4.42436,0,0,1,362.78076,232.78573Z" transform="translate(-153.60882 -195.56658)"/><text class="cls-11" transform="translate(78.90434 34.24103)">短视频平台分类与比较</text><rect class="cls-12" x="78.90468" y="22.33158" width="119.84588" height="14.88766"/><line class="cls-1" x1="72.20526" y1="14.88766" x2="158.55381" y2="14.88766"/><path class="cls-13" d="M315.14018,210.45424a4.466,4.466,0,1,1-.34-1.70919A4.42405,4.42405,0,0,1,315.14018,210.45424Z" transform="translate(-153.60882 -195.56658)"/><path class="cls-1" d="M315.14018,210.45424a4.466,4.466,0,1,1-.34-1.70919A4.42405,4.42405,0,0,1,315.14018,210.45424Z" transform="translate(-153.60882 -195.56658)"/><text class="cls-11" transform="translate(78.90434 11.90998)">用户需求分析</text><rect class="cls-12" x="78.90468" width="72.2053" height="14.88775"/><line class="cls-14" y1="313.0135" x2="14.88766" y2="313.0135"/><path class="cls-13" d="M171.474,508.58008a4.46583,4.46583,0,1,1-.33994-1.70919A4.42482,4.42482,0,0,1,171.474,508.58008Z" transform="translate(-153.60882 -195.56658)"/><path class="cls-5" d="M171.474,508.58008a4.46583,4.46583,0,1,1-.33994-1.70919A4.42482,4.42482,0,0,1,171.474,508.58008Z" transform="translate(-153.60882 -195.56658)"/></svg>