<svg id="图层_1" data-name="图层 1" xmlns="http://www.w3.org/2000/svg" viewBox="0 0 631.14441 445.37502"><defs><style>.cls-1,.cls-10,.cls-13,.cls-2,.cls-3,.cls-4,.cls-5,.cls-6,.cls-7,.cls-8,.cls-9{fill:none;}.cls-1{stroke:#ff7f0e;}.cls-1,.cls-10,.cls-2,.cls-3,.cls-4,.cls-5,.cls-6,.cls-7,.cls-8,.cls-9{stroke-width:1.08889px;}.cls-2{stroke:#e377c2;}.cls-3{stroke:#8c564b;}.cls-4{stroke:#17becf;}.cls-5{stroke:#d62728;}.cls-6{stroke:#2ca02c;}.cls-7{stroke:#9467bd;}.cls-8{stroke:#7f7f7f;}.cls-9{stroke:#bcbd22;}.cls-10,.cls-13{stroke:#1f77b4;}.cls-11{font-size:13.11469px;font-family:MicrosoftYaHeiLight, Microsoft YaHei;}.cls-12{fill:#fff;}.cls-13{stroke-width:1.45185px;}</style></defs><path class="cls-1" d="M211.18182,365.53569c32.78673,0,32.78673-182.786,65.57344-182.786" transform="translate(-196.42779 -137.50732)"/><path class="cls-2" d="M211.18182,365.53569c32.78673,0,32.78673-96.72085,65.57344-96.72085" transform="translate(-196.42779 -137.50732)"/><path class="cls-1" d="M211.18182,365.53569c32.78673,0,32.78673-20.90158,65.57344-20.90158" transform="translate(-196.42779 -137.50732)"/><path class="cls-3" d="M211.18182,365.53569c32.78673,0,32.78673,44.67188,65.57344,44.67188" transform="translate(-196.42779 -137.50732)"/><path class="cls-4" d="M211.18182,365.53569c32.78673,0,32.78673,110.24534,65.57344,110.24534" transform="translate(-196.42779 -137.50732)"/><path class="cls-5" d="M211.18182,365.53569c32.78673,0,32.78673,186.06464,65.57344,186.06464" transform="translate(-196.42779 -137.50732)"/><path class="cls-6" d="M343.14837,182.7497c32.78674,0,32.78674-30.73757,65.57349-30.73757" transform="translate(-196.42779 -137.50732)"/><path class="cls-5" d="M343.14837,182.7497c32.78674,0,32.78674-10.24588,65.57349-10.24588" transform="translate(-196.42779 -137.50732)"/><path class="cls-7" d="M343.14837,182.7497c32.78674,0,32.78674,10.24581,65.57349,10.24581" transform="translate(-196.42779 -137.50732)"/><path class="cls-3" d="M343.14837,182.7497c32.78674,0,32.78674,30.73757,65.57349,30.73757" transform="translate(-196.42779 -137.50732)"/><path class="cls-8" d="M343.14837,268.81484c32.78674,0,32.78674-30.73753,65.57349-30.73753" transform="translate(-196.42779 -137.50732)"/><path class="cls-9" d="M343.14837,268.81484c32.78674,0,32.78674-10.24584,65.57349-10.24584" transform="translate(-196.42779 -137.50732)"/><path class="cls-4" d="M343.14837,268.81484c32.78674,0,32.78674,10.24585,65.57349,10.24585" transform="translate(-196.42779 -137.50732)"/><path class="cls-10" d="M343.14837,268.81484c32.78674,0,32.78674,30.73754,65.57349,30.73754" transform="translate(-196.42779 -137.50732)"/><path class="cls-6" d="M369.37777,344.63411c32.78671,0,32.78671-20.49169,65.57342-20.49169" transform="translate(-196.42779 -137.50732)"/><path class="cls-5" d="M369.37777,344.63411h65.57342" transform="translate(-196.42779 -137.50732)"/><path class="cls-7" d="M369.37777,344.63411c32.78671,0,32.78671,20.49173,65.57342,20.49173" transform="translate(-196.42779 -137.50732)"/><path class="cls-2" d="M369.37777,410.20757c32.78671,0,32.78671-20.49169,65.57342-20.49169" transform="translate(-196.42779 -137.50732)"/><path class="cls-8" d="M369.37777,410.20757h65.57342" transform="translate(-196.42779 -137.50732)"/><path class="cls-9" d="M369.37777,410.20757c32.78671,0,32.78671,20.49172,65.57342,20.49172" transform="translate(-196.42779 -137.50732)"/><path class="cls-10" d="M439.86924,475.781c32.78668,0,32.78668-20.49169,65.57339-20.49169" transform="translate(-196.42779 -137.50732)"/><path class="cls-1" d="M439.86924,475.781h65.57339" transform="translate(-196.42779 -137.50732)"/><path class="cls-6" d="M439.86924,475.781c32.78668,0,32.78668,20.49169,65.57339,20.49169" transform="translate(-196.42779 -137.50732)"/><path class="cls-7" d="M382.49246,551.60033c32.78674,0,32.78674-30.73757,65.57342-30.73757" transform="translate(-196.42779 -137.50732)"/><path class="cls-3" d="M382.49246,551.60033c32.78674,0,32.78674-10.24585,65.57342-10.24585" transform="translate(-196.42779 -137.50732)"/><path class="cls-2" d="M382.49246,551.60033c32.78674,0,32.78674,10.24584,65.57342,10.24584" transform="translate(-196.42779 -137.50732)"/><path class="cls-8" d="M382.49246,551.60033c32.78674,0,32.78674,30.73757,65.57342,30.73757" transform="translate(-196.42779 -137.50732)"/><line class="cls-8" x1="250.81842" y1="444.83058" x2="581.96433" y2="444.83058"/><text class="cls-11" transform="translate(258.19459 441.55225)">电池性能分析：评估应用对设备电量的影响，优化能耗</text><line class="cls-2" x1="250.81842" y1="424.33885" x2="529.50559" y2="424.33885"/><text class="cls-11" transform="translate(258.19459 421.06007)">网络性能分析：监控网络请求，优化网络性能</text><line class="cls-3" x1="250.81842" y1="403.84716" x2="555.73496" y2="403.84716"/><text class="cls-11" transform="translate(258.19459 400.56788)">内存性能分析：检测内存泄漏，优化内存使用效率</text><line class="cls-7" x1="250.81842" y1="383.35544" x2="607.37407" y2="383.35544"/><text class="cls-11" transform="translate(258.19459 380.07667)">CPU性能分析：识别热点代码，优化CPU占用率高的代码块</text><line class="cls-6" x1="308.19521" y1="358.76539" x2="495.07951" y2="358.76539"/><text class="cls-11" transform="translate(315.57154 355.48682)">实时数据显示和历史记录分析</text><line class="cls-1" x1="308.19521" y1="338.2737" x2="521.30888" y2="338.2737"/><text class="cls-11" transform="translate(315.57154 334.99464)">监控CPU、内存、网络和电池消耗</text><line class="cls-10" x1="308.19521" y1="317.78198" x2="518.84993" y2="317.78198"/><text class="cls-11" transform="translate(315.43004 314.50348)">Android Studio内置性能分析工具</text><line class="cls-9" x1="237.70377" y1="293.19197" x2="359.01465" y2="293.19197"/><text class="cls-11" transform="translate(245.08033 289.91261)">网络请求性能分析</text><line class="cls-8" x1="237.70377" y1="272.70025" x2="359.01465" y2="272.70025"/><text class="cls-11" transform="translate(245.08033 269.42139)">函数执行时间分析</text><line class="cls-2" x1="237.70377" y1="252.20856" x2="398.35867" y2="252.20856"/><text class="cls-11" transform="translate(245.08033 248.93018)">内存泄露问题诊断与解决</text><line class="cls-7" x1="237.70377" y1="227.61851" x2="490.16153" y2="227.61851"/><text class="cls-11" transform="translate(245.08033 224.34034)">网络优化：缓存常用数据、减少网络请求</text><line class="cls-5" x1="237.70377" y1="207.12679" x2="555.73496" y2="207.12679"/><text class="cls-11" transform="translate(245.08033 203.84815)">内存优化：及时释放资源、避免内存泄漏、使用缓存</text><line class="cls-6" x1="237.70377" y1="186.6351" x2="555.73496" y2="186.6351"/><text class="cls-11" transform="translate(245.08033 183.35694)">CPU优化：减少计算、使用高效算法、合理管理线程</text><line class="cls-10" x1="211.47437" y1="162.04506" x2="425.40774" y2="162.04506"/><text class="cls-11" transform="translate(217.7731 158.7663)">Bottom Up Tree：逆向构建调用栈</text><line class="cls-4" x1="211.47437" y1="141.55337" x2="459.83381" y2="141.55337"/><text class="cls-11" transform="translate(216.65857 138.2751)">Top Down Tree：按层次结构显示调用栈</text><line class="cls-9" x1="211.47437" y1="121.06168" x2="457.37479" y2="121.06168"/><text class="cls-11" transform="translate(219.15935 117.7829)">Flame Chart：显示方法调用和执行时间</text><line class="cls-8" x1="211.47437" y1="100.56998" x2="404.91602" y2="100.56998"/><text class="cls-11" transform="translate(219.15982 97.29135)">Call Chart：显示方法调用关系</text><line class="cls-3" x1="211.47437" y1="75.97994" x2="424.58804" y2="75.97994"/><text class="cls-11" transform="translate(218.85084 72.70167)">使用不同维度的数据图表分析性能</text><line class="cls-7" x1="211.47437" y1="55.48818" x2="385.24402" y2="55.48818"/><text class="cls-11" transform="translate(218.85084 52.20948)">选择监测的设备和应用进程</text><line class="cls-5" x1="211.47437" y1="34.99649" x2="631.14441" y2="34.99649"/><text class="cls-11" transform="translate(221.09856 31.71732)">在Android Studio中选择 &quot;View -&gt; Tool Windows -&gt; Android Prfiler&quot;</text><line class="cls-6" x1="211.47437" y1="14.5048" x2="359.01462" y2="14.5048"/><text class="cls-11" transform="translate(218.85084 11.22608)">连接设备或启动模拟器</text><line class="cls-5" x1="79.50782" y1="414.09301" x2="187.70402" y2="414.09301"/><path class="cls-12" d="M387.41047,551.60033a4.91918,4.91918,0,1,1-.09452-.95946A4.90674,4.90674,0,0,1,387.41047,551.60033Z" transform="translate(-196.42779 -137.50732)"/><path class="cls-5" d="M387.41047,551.60033a4.91918,4.91918,0,1,1-.09452-.95946A4.90674,4.90674,0,0,1,387.41047,551.60033Z" transform="translate(-196.42779 -137.50732)"/><text class="cls-11" transform="translate(86.88404 410.81397)">性能分析与优化</text><line class="cls-4" x1="79.50782" y1="338.2737" x2="245.08074" y2="338.2737"/><path class="cls-12" d="M444.78722,475.781a4.91782,4.91782,0,1,1-.09448-.95946A4.90716,4.90716,0,0,1,444.78722,475.781Z" transform="translate(-196.42779 -137.50732)"/><path class="cls-4" d="M444.78722,475.781a4.91782,4.91782,0,1,1-.09448-.95946A4.90716,4.90716,0,0,1,444.78722,475.781Z" transform="translate(-196.42779 -137.50732)"/><text class="cls-11" transform="translate(86.41363 334.99474)">Android Profiler 工具概述</text><line class="cls-3" x1="79.50782" y1="272.70025" x2="174.58934" y2="272.70025"/><path class="cls-12" d="M374.29579,410.20757a4.91876,4.91876,0,1,1-.09452-.95943A4.91,4.91,0,0,1,374.29579,410.20757Z" transform="translate(-196.42779 -137.50732)"/><path class="cls-3" d="M374.29579,410.20757a4.91876,4.91876,0,1,1-.09452-.95943A4.91,4.91,0,0,1,374.29579,410.20757Z" transform="translate(-196.42779 -137.50732)"/><text class="cls-11" transform="translate(86.88404 269.42139)">实际案例分析</text><line class="cls-1" x1="79.50782" y1="207.12679" x2="174.58934" y2="207.12679"/><path class="cls-12" d="M374.29579,344.63411a4.91846,4.91846,0,1,1-.09452-.95946A4.90966,4.90966,0,0,1,374.29579,344.63411Z" transform="translate(-196.42779 -137.50732)"/><path class="cls-1" d="M374.29579,344.63411a4.91846,4.91846,0,1,1-.09452-.95946A4.90966,4.90966,0,0,1,374.29579,344.63411Z" transform="translate(-196.42779 -137.50732)"/><text class="cls-11" transform="translate(86.88404 203.84815)">性能优化建议</text><line class="cls-2" x1="79.50782" y1="131.30752" x2="148.35993" y2="131.30752"/><path class="cls-12" d="M348.06638,268.81484a4.91742,4.91742,0,1,1-.09448-.95946A4.90663,4.90663,0,0,1,348.06638,268.81484Z" transform="translate(-196.42779 -137.50732)"/><path class="cls-2" d="M348.06638,268.81484a4.91742,4.91742,0,1,1-.09448-.95946A4.90663,4.90663,0,0,1,348.06638,268.81484Z" transform="translate(-196.42779 -137.50732)"/><text class="cls-11" transform="translate(86.88404 128.02882)">数据图表</text><line class="cls-1" x1="79.50782" y1="45.24237" x2="148.35993" y2="45.24237"/><path class="cls-12" d="M348.06638,182.7497a4.91752,4.91752,0,1,1-.09448-.95946A4.90693,4.90693,0,0,1,348.06638,182.7497Z" transform="translate(-196.42779 -137.50732)"/><path class="cls-1" d="M348.06638,182.7497a4.91752,4.91752,0,1,1-.09448-.95946A4.90693,4.90693,0,0,1,348.06638,182.7497Z" transform="translate(-196.42779 -137.50732)"/><text class="cls-11" transform="translate(86.88404 41.96339)">使用方法</text><line class="cls-13" y1="228.02833" x2="16.39337" y2="228.02833"/><path class="cls-12" d="M216.09984,365.53565a4.91894,4.91894,0,1,1-.09452-.95946A4.90506,4.90506,0,0,1,216.09984,365.53565Z" transform="translate(-196.42779 -137.50732)"/><path class="cls-10" d="M216.09984,365.53565a4.91894,4.91894,0,1,1-.09452-.95946A4.90506,4.90506,0,0,1,216.09984,365.53565Z" transform="translate(-196.42779 -137.50732)"/></svg>