<svg width="16" height="16" viewBox="0 0 16 16" fill="none" xmlns="http://www.w3.org/2000/svg">
<path fill-rule="evenodd" clip-rule="evenodd" d="M2.28585 8.00014C2.28585 4.84423 4.84423 2.28585 8.00014 2.28585C11.1561 2.28585 13.7144 4.84423 13.7144 8.00014C13.7144 11.1561 11.1561 13.7144 8.00014 13.7144C4.84423 13.7144 2.28585 11.1561 2.28585 8.00014ZM8.00014 1.42871C4.37084 1.42871 1.42871 4.37084 1.42871 8.00014C1.42871 11.6294 4.37084 14.5716 8.00014 14.5716C11.6294 14.5716 14.5716 11.6294 14.5716 8.00014C14.5716 4.37084 11.6294 1.42871 8.00014 1.42871ZM10.3287 8.96508C11.0716 8.53619 11.0716 7.46397 10.3287 7.03508L7.6716 5.50098C6.92874 5.07209 6.00017 5.6082 6.00017 6.46598V9.53418C6.00017 10.392 6.92874 10.9281 7.6716 10.4992L10.3287 8.96508ZM9.90017 7.77739C10.0716 7.87636 10.0716 8.1238 9.90017 8.22277L7.24303 9.75687C7.0716 9.85585 6.85731 9.73213 6.85731 9.53418V6.46598C6.85731 6.26803 7.0716 6.14431 7.24303 6.24328L9.90017 7.77739Z" fill="#008AC5"/>
</svg>
