<svg width="16" height="16" viewBox="0 0 16 16" fill="none" xmlns="http://www.w3.org/2000/svg">
<rect x="2.5" y="2.5" width="11" height="11" rx="2.5" stroke="#008AC5"/>
<path fill-rule="evenodd" clip-rule="evenodd" d="M10.1499 4.7618C9.12372 4.76178 8.10579 4.94494 7.144 5.30267C7.18962 5.19185 7.23135 5.07946 7.26909 4.96571L7.31103 4.83989C7.35765 4.71593 7.33276 4.57639 7.24615 4.4762C7.15954 4.376 7.02508 4.33118 6.89567 4.35937C6.76626 4.38756 6.66263 4.48425 6.62555 4.6114L6.58361 4.73721C6.36721 5.38571 6.00279 5.97491 5.51922 6.45816C5.37785 6.59953 5.37785 6.82874 5.51922 6.97011C5.66059 7.11148 5.8898 7.11148 6.03117 6.97011C6.2442 6.75692 6.43801 6.52536 6.61036 6.27812C6.64287 6.27448 6.67474 6.26646 6.70509 6.25425L7.21631 6.04962C8.14909 5.67651 9.14479 5.48489 10.1499 5.48489C10.8288 5.48489 11.3791 6.03524 11.3791 6.71414V9.64265C11.3791 10.2417 10.8935 10.7273 10.2945 10.7273H9.35448C9.15481 10.7273 8.99294 10.8891 8.99294 11.0888C8.99294 11.2885 9.15481 11.4504 9.35448 11.4504H10.2945C10.7739 11.4504 11.2337 11.2599 11.5727 10.9209C11.9118 10.5819 12.1022 10.1221 12.1022 9.64265V6.71414C12.1022 5.63589 11.2281 4.7618 10.1499 4.7618ZM9.6097 10.1719L10.1014 9.92609L10.152 10.015C10.2162 10.1271 10.3353 10.1965 10.4645 10.197C10.5937 10.1974 10.7134 10.1289 10.7784 10.0173C10.8434 9.90562 10.8439 9.76777 10.7797 9.65565L10.4637 9.10321C10.3831 8.96217 10.2183 8.89219 10.0608 8.93215C9.90338 8.9721 9.7919 9.11217 9.7883 9.27458L9.28648 9.5255C9.16717 9.58479 9.04497 9.6383 8.9206 9.6853V8.66647H10.5475C10.7472 8.66647 10.9091 8.5046 10.9091 8.30492C10.9091 8.10525 10.7472 7.94338 10.5475 7.94338H8.9206V7.47337H10.1498C10.3495 7.47337 10.5114 7.3115 10.5114 7.11183C10.5114 6.91215 10.3495 6.75028 10.1498 6.75028H7.92129C7.9446 6.69793 7.9663 6.64488 7.98637 6.5912C8.05625 6.40411 7.96124 6.19578 7.77414 6.1259C7.58704 6.05601 7.37872 6.15103 7.30883 6.33812C7.20398 6.62085 7.0384 6.87682 6.82436 7.08941L6.7817 7.13135C6.68741 7.22174 6.64921 7.35597 6.68177 7.48246C6.71433 7.60896 6.81259 7.70806 6.93881 7.74169C7.06502 7.77532 7.19957 7.73826 7.29076 7.64474L7.33269 7.6028C7.37503 7.56098 7.41603 7.51781 7.45562 7.47337H8.19751V7.94338H6.57056C6.37088 7.94338 6.20901 8.10525 6.20901 8.30492C6.20901 8.5046 6.37088 8.66647 6.57056 8.66647H8.19751V9.87981C7.98926 9.91452 7.77739 9.93187 7.56481 9.93187H7.36596C7.12635 9.93187 6.9321 9.73763 6.9321 9.49802C6.9321 9.29834 6.77023 9.13648 6.57056 9.13648C6.37088 9.13648 6.20901 9.29834 6.20901 9.49802C6.20901 10.137 6.727 10.655 7.36596 10.655H7.56481C8.27469 10.6548 8.97479 10.4895 9.6097 10.1719ZM4.8605 5.8392C4.64734 5.83924 4.45037 5.72554 4.34378 5.54096C4.23719 5.35637 4.23719 5.12893 4.34378 4.94435C4.45037 4.75976 4.64734 4.64606 4.8605 4.6461C5.18992 4.64616 5.45694 4.91323 5.45694 5.24265C5.45694 5.57207 5.18992 5.83914 4.8605 5.8392ZM3.9599 6.94142C3.9729 7.07278 4.05646 7.18661 4.17788 7.23839L4.40493 7.34396C4.68574 7.47499 4.89709 7.71987 4.98566 8.01682C5.07424 8.31377 5.03157 8.63442 4.86843 8.89787L3.87708 10.501C3.80462 10.6109 3.79763 10.7515 3.85882 10.868C3.92002 10.9846 4.03973 11.0587 4.17134 11.0614C4.30296 11.0642 4.42567 10.9952 4.4917 10.8813L5.48378 9.2775C5.75518 8.83835 5.82587 8.30411 5.67803 7.80949C5.5302 7.31486 5.17794 6.90704 4.71007 6.68884L4.48302 6.58327C4.36526 6.52363 4.22436 6.53291 4.11544 6.60749C4.00652 6.68206 3.94689 6.81006 3.9599 6.94142Z" fill="#008AC5"/>
</svg>
