<svg width="16" height="16" viewBox="0 0 16 16" fill="none" xmlns="http://www.w3.org/2000/svg">
<path fill-rule="evenodd" clip-rule="evenodd" d="M6.14272 3.42836C6.14272 2.56049 6.84627 1.85693 7.71415 1.85693H8.28557C9.15345 1.85693 9.857 2.56049 9.857 3.42836V11.4284C9.857 12.2962 9.15345 12.9998 8.28557 12.9998H7.71415C6.84627 12.9998 6.14272 12.2962 6.14272 11.4284V3.42836ZM7.71415 2.71408C7.31966 2.71408 6.99986 3.03387 6.99986 3.42836V11.4284C6.99986 11.8229 7.31966 12.1426 7.71415 12.1426H8.28557C8.68006 12.1426 8.99986 11.8229 8.99986 11.4284V3.42836C8.99986 3.03387 8.68006 2.71408 8.28557 2.71408H7.71415ZM1.57129 9.14265C1.57129 8.27477 2.27484 7.57122 3.14272 7.57122H3.71415C4.58202 7.57122 5.28557 8.27477 5.28557 9.14265V11.4284C5.28557 12.2962 4.58202 12.9998 3.71415 12.9998H3.14272C2.27484 12.9998 1.57129 12.2962 1.57129 11.4284V9.14265ZM3.14272 8.42836C2.74823 8.42836 2.42843 8.74816 2.42843 9.14265V11.4284C2.42843 11.8229 2.74823 12.1426 3.14272 12.1426H3.71415C4.10863 12.1426 4.42843 11.8229 4.42843 11.4284V9.14265C4.42843 8.74816 4.10864 8.42836 3.71415 8.42836H3.14272ZM12.2856 5.2855C11.4177 5.2855 10.7141 5.98906 10.7141 6.85693V11.4284C10.7141 12.2962 11.4177 12.9998 12.2856 12.9998H12.857C13.7249 12.9998 14.4284 12.2962 14.4284 11.4284V6.85693C14.4284 5.98906 13.7249 5.2855 12.857 5.2855H12.2856ZM11.5713 6.85693C11.5713 6.46244 11.8911 6.14265 12.2856 6.14265H12.857C13.2515 6.14265 13.5713 6.46244 13.5713 6.85693V11.4284C13.5713 11.8229 13.2515 12.1426 12.857 12.1426H12.2856C11.8911 12.1426 11.5713 11.8229 11.5713 11.4284V6.85693Z" fill="#008AC5"/>
</svg>
