<svg width="16" height="16" viewBox="0 0 16 16" fill="none" xmlns="http://www.w3.org/2000/svg">
<path fill-rule="evenodd" clip-rule="evenodd" d="M6.28571 1.71436C5.26004 1.71436 4.42857 2.54583 4.42857 3.5715C4.42857 3.93968 4.53571 4.28284 4.72052 4.5715H3.28571C2.57563 4.5715 2 5.14713 2 5.85721V7.13416C2 7.57258 2.2241 7.97276 2.581 8.19531C2.57473 8.22447 2.57143 8.25474 2.57143 8.28578V12.2858C2.57143 13.2326 3.33894 14.0001 4.28571 14.0001H11.7143C12.6611 14.0001 13.4286 13.2326 13.4286 12.2858V8.28578C13.4286 8.25474 13.4253 8.22448 13.419 8.19531C13.7759 7.97276 14 7.57258 14 7.13416V5.85721C14 5.14713 13.4244 4.5715 12.7143 4.5715H11.2795C11.4643 4.28284 11.5714 3.93968 11.5714 3.5715C11.5714 2.54583 10.74 1.71436 9.71429 1.71436C8.94221 1.71436 8.28018 2.18549 8 2.85596C7.71982 2.18549 7.05779 1.71436 6.28571 1.71436ZM7.28571 4.5715H6.28571C5.73343 4.5715 5.28571 4.12378 5.28571 3.5715C5.28571 3.01921 5.73343 2.5715 6.28571 2.5715C6.838 2.5715 7.28571 3.01921 7.28571 3.5715V4.5715ZM9.71429 4.5715H8.71429V3.5715C8.71429 3.01921 9.162 2.5715 9.71429 2.5715C10.2666 2.5715 10.7143 3.01921 10.7143 3.5715C10.7143 4.12378 10.2666 4.5715 9.71429 4.5715ZM8.42857 7.71318V5.42864H12.7143C12.951 5.42864 13.1429 5.62052 13.1429 5.85721V7.13416C13.1429 7.34434 12.9959 7.50075 12.8114 7.51944C12.0477 7.59683 10.6253 7.701 8.42857 7.71318ZM3.28571 5.42864H7.57143V7.71318C5.37466 7.701 3.95229 7.59683 3.18862 7.51944C3.00413 7.50075 2.85714 7.34433 2.85714 7.13416V5.85721C2.85714 5.62052 3.04902 5.42864 3.28571 5.42864ZM8.42857 13.1429V8.57033C10.3767 8.55965 11.7318 8.4774 12.5714 8.40311V12.2858C12.5714 12.7592 12.1877 13.1429 11.7143 13.1429H8.42857ZM3.42857 8.40311C4.26823 8.4774 5.62331 8.55965 7.57143 8.57033V13.1429H4.28571C3.81233 13.1429 3.42857 12.7592 3.42857 12.2858V8.40311Z" fill="#008AC5"/>
</svg>
