<svg width="16" height="16" viewBox="0 0 16 16" fill="none" xmlns="http://www.w3.org/2000/svg">
<path fill-rule="evenodd" clip-rule="evenodd" d="M6.58551 4.46508C5.21868 5.83192 5.21868 8.04799 6.58551 9.41483C6.87444 9.70376 7.20219 9.93219 7.55245 10.0994C7.80166 10.2183 8.10011 10.1127 8.21905 9.86349C8.338 9.61427 8.23239 9.31582 7.98318 9.19688C7.92582 9.1695 7.86926 9.1398 7.81365 9.10776C7.62772 9.00064 7.45231 8.86741 7.29262 8.70772C6.31631 7.73141 6.31631 6.1485 7.29262 5.17219L8.94253 3.52227C9.91884 2.54596 11.5018 2.54596 12.4781 3.52227C13.4544 4.49858 13.4541 6.08172 12.4778 7.05803L11.4178 8.11944C11.385 8.15229 11.3577 8.18855 11.336 8.22709C11.2283 8.41783 11.2557 8.66421 11.4183 8.82655C11.6137 9.02168 11.9302 9.02148 12.1254 8.82609L13.1854 7.76468C14.552 6.39783 14.5519 4.18192 13.1852 2.81517C11.8183 1.44833 9.60226 1.44833 8.23543 2.81517L6.58551 4.46508ZM2.81419 8.23657C1.44735 9.6034 1.44735 11.8195 2.81419 13.1863C4.18102 14.5531 6.3971 14.5531 7.76394 13.1863L9.41385 11.5364C10.2498 10.7004 10.5745 9.54684 10.3879 8.46413C10.2694 7.77653 9.94474 7.11753 9.41385 6.58665C9.12553 6.29832 8.79853 6.07024 8.4491 5.90316C8.19997 5.78404 7.90145 5.88944 7.78233 6.13857C7.66321 6.3877 7.76861 6.68622 8.01774 6.80534C8.26628 6.92418 8.49971 7.08673 8.70675 7.29376C9.10466 7.69167 9.34039 8.19034 9.41395 8.70764C9.52088 9.45959 9.28515 10.2509 8.70675 10.8293L7.05683 12.4792C6.08052 13.4555 4.49761 13.4555 3.5213 12.4792C2.54502 11.5029 2.54508 9.91999 3.5213 8.94367L4.58247 7.88387C4.77786 7.68874 4.77807 7.37216 4.58293 7.17677C4.3878 6.98138 4.07122 6.98117 3.87583 7.17631L2.81419 8.23657Z" fill="#008AC5"/>
</svg>
