<svg id="图层_1" data-name="图层 1" xmlns="http://www.w3.org/2000/svg" viewBox="0 0 40 40"><title>error</title><path id="Oval-2" d="M20,37.33A17.33,17.33,0,1,0,2.67,20,17.33,17.33,0,0,0,20,37.33Z" style="fill:#fff"/><path id="Oval-2-Copy" d="M20,40A20,20,0,1,1,40,20,20,20,0,0,1,20,40Zm0-2.67A17.33,17.33,0,1,0,2.67,20,17.33,17.33,0,0,0,20,37.33Z" style="fill:#ff94b1"/><path id="Combined-Shape" d="M17.33,10.68a2.67,2.67,0,1,1,5.33,0V21.32a2.67,2.67,0,1,1-5.33,0ZM20,32a2.67,2.67,0,1,1,2.67-2.67A2.67,2.67,0,0,1,20,32Z" style="fill:#ea5c82"/></svg>